<?xml version="1.0" encoding="UTF-8"?>
<!DOCTYPE svg PUBLIC "-//W3C//DTD SVG 1.1//EN" "http://www.w3.org/Graphics/SVG/1.1/DTD/svg11.dtd">
<svg xmlns="http://www.w3.org/2000/svg" version="1.1" width="1988px" height="1988px" style="shape-rendering:geometricPrecision; text-rendering:geometricPrecision; image-rendering:optimizeQuality; fill-rule:evenodd; clip-rule:evenodd" xmlns:xlink="http://www.w3.org/1999/xlink">
<g><path style="opacity:0.999" fill="#8e6db5" d="M 948.5,-0.5 C 978.5,-0.5 1008.5,-0.5 1038.5,-0.5C 1283.63,13.7826 1495.96,103.616 1675.5,269C 1867.51,454.296 1971.51,680.796 1987.5,948.5C 1987.5,978.5 1987.5,1008.5 1987.5,1038.5C 1973.22,1283.63 1883.38,1495.96 1718,1675.5C 1532.7,1867.51 1306.2,1971.51 1038.5,1987.5C 1008.5,1987.5 978.5,1987.5 948.5,1987.5C 703.37,1973.22 491.037,1883.38 311.5,1718C 119.491,1532.7 15.4912,1306.2 -0.5,1038.5C -0.5,1008.5 -0.5,978.5 -0.5,948.5C 13.7826,703.37 103.616,491.037 269,311.5C 454.296,119.491 680.796,15.4912 948.5,-0.5 Z"/></g>
<g><path style="opacity:1" fill="#ac98c3" d="M 1313.5,177.5 C 1314.25,176.427 1315.25,176.26 1316.5,177C 1525.46,266.961 1679.3,414.461 1778,619.5C 1857.74,794.859 1879.07,977.192 1842,1166.5C 1796.66,1376.32 1690.82,1548.15 1524.5,1682C 1342.24,1821.96 1135.91,1883.96 905.5,1868C 759.685,1855.4 625.351,1809.73 502.5,1731C 687.471,1802.96 876.804,1812.96 1070.5,1761C 1285.72,1697.05 1454.22,1571.22 1576,1383.5C 1687.74,1202.47 1730.41,1006.14 1704,794.5C 1668.03,558.298 1557.2,366.131 1371.5,218C 1352.63,203.742 1333.3,190.242 1313.5,177.5 Z"/></g>
</svg>
