<?xml version="1.0" encoding="UTF-8"?>
<!DOCTYPE svg PUBLIC "-//W3C//DTD SVG 1.1//EN" "http://www.w3.org/Graphics/SVG/1.1/DTD/svg11.dtd">
<svg xmlns="http://www.w3.org/2000/svg" version="1.1" width="330px" height="400px" style="shape-rendering:geometricPrecision; text-rendering:geometricPrecision; image-rendering:optimizeQuality; fill-rule:evenodd; clip-rule:evenodd" xmlns:xlink="http://www.w3.org/1999/xlink">
<g><path style="opacity:0.992" fill="#fefffe" d="M 103.5,-0.5 C 113.5,-0.5 123.5,-0.5 133.5,-0.5C 187.944,9.10475 222.11,40.7714 236,94.5C 244.44,150.911 224.607,194.078 176.5,224C 133.674,244.993 92.0073,242.993 51.5,218C 22.4109,197.076 5.0776,168.909 -0.5,133.5C -0.5,123.5 -0.5,113.5 -0.5,103.5C 7.44207,57.7155 32.7754,25.5489 75.5,7C 84.7935,3.84552 94.1268,1.34552 103.5,-0.5 Z"/></g>
<g><path style="opacity:0.993" fill="#fefffe" d="M 150.5,255.5 C 172.651,256.485 184.984,267.985 187.5,290C 185.329,310.838 173.829,322.338 153,324.5C 131.951,322.452 120.784,310.952 119.5,290C 120.564,270.105 130.898,258.605 150.5,255.5 Z"/></g>
<g><path style="opacity:0.996" fill="#fefffe" d="M 329.5,336.5 C 329.5,341.5 329.5,346.5 329.5,351.5C 323.748,378.252 307.415,394.252 280.5,399.5C 276.5,399.5 272.5,399.5 268.5,399.5C 240.179,394.678 223.679,378.012 219,349.5C 219.123,312.712 237.456,292.379 274,288.5C 304.468,290.809 322.968,306.809 329.5,336.5 Z"/></g>
</svg>
