<?xml version="1.0" encoding="UTF-8"?>
<!DOCTYPE svg PUBLIC "-//W3C//DTD SVG 1.1//EN" "http://www.w3.org/Graphics/SVG/1.1/DTD/svg11.dtd">
<svg xmlns="http://www.w3.org/2000/svg" version="1.1" width="4096px" height="3192px" style="shape-rendering:geometricPrecision; text-rendering:geometricPrecision; image-rendering:optimizeQuality; fill-rule:evenodd; clip-rule:evenodd" xmlns:xlink="http://www.w3.org/1999/xlink">
<g><path style="opacity:0.999" fill="#3eb6c6" d="M 3933.5,316.5 C 3874.26,325.763 3815.59,337.93 3757.5,353C 3694.05,371.716 3637.38,402.382 3587.5,445C 3585.81,445.847 3584.14,446.68 3582.5,447.5C 3536.35,449.911 3490.35,448.244 3444.5,442.5C 3420.14,425.322 3396.14,407.655 3372.5,389.5C 3387.07,279.773 3440.4,194.94 3532.5,135C 3584.76,105.036 3639.76,81.3697 3697.5,64C 3722.7,60.0264 3747.7,55.0264 3772.5,49C 3810.73,37.2902 3848.73,24.9569 3886.5,12C 3898.57,8.27559 3910.9,6.60892 3923.5,7C 3934.18,7.69284 3942.34,12.5262 3948,21.5C 3955.31,38.6781 3958.98,56.6781 3959,75.5C 3959.6,93.1807 3959.26,110.847 3958,128.5C 3955.37,158.479 3953.03,188.479 3951,218.5C 3948.6,242.634 3945.27,266.634 3941,290.5C 3939.12,299.372 3936.62,308.038 3933.5,316.5 Z"/></g>
<g><path style="opacity:0.998" fill="#59d7d5" d="M 3512.5,750.5 C 3483.25,733.455 3454.08,716.121 3425,698.5C 3424.52,697.552 3424.35,696.552 3424.5,695.5C 3449.33,611.601 3491.83,538.267 3552,475.5C 3561.96,465.801 3572.12,456.467 3582.5,447.5C 3584.14,446.68 3585.81,445.847 3587.5,445C 3637.38,402.382 3694.05,371.716 3757.5,353C 3815.59,337.93 3874.26,325.763 3933.5,316.5C 3954.79,311.654 3976.13,311.487 3997.5,316C 4007.62,319.475 4016.12,325.309 4023,333.5C 4038.7,356.269 4047.03,381.602 4048,409.5C 4048.65,418.659 4049.15,427.826 4049.5,437C 4048.1,481.687 4042.6,525.853 4033,569.5C 4026.07,601.553 4017.74,633.22 4008,664.5C 3974.67,701.443 3934.51,728.609 3887.5,746C 3862.79,753.952 3837.46,758.118 3811.5,758.5C 3765.17,755.278 3718.84,752.111 3672.5,749C 3627.17,748.333 3581.83,748.333 3536.5,749C 3528.47,749.301 3520.47,749.801 3512.5,750.5 Z"/></g>
<g><path style="opacity:0.994" fill="#2d77d6" d="M 3372.5,389.5 C 3396.14,407.655 3420.14,425.322 3444.5,442.5C 3399.62,543.338 3339.12,633.338 3263,712.5C 3219.82,756.009 3175.66,798.509 3130.5,840C 3057.06,911.572 2989.4,987.738 2927.5,1068.5C 2926.83,1068.5 2926.5,1068.83 2926.5,1069.5C 2854.13,1119.85 2775.46,1157.68 2690.5,1183C 2636.27,1195.81 2581.6,1205.81 2526.5,1213C 2434.47,1224.8 2342.14,1233.3 2249.5,1238.5C 2335.7,1192.74 2424.7,1152.91 2516.5,1119C 2559.12,1104.79 2601.79,1090.79 2644.5,1077C 2673.63,1064.85 2701.96,1051.19 2729.5,1036C 2739.5,1029 2749.5,1022 2759.5,1015C 2783.17,995.324 2806.17,974.99 2828.5,954C 2930.88,851.613 3031.38,747.113 3130,640.5C 3207.59,554.732 3287.76,471.232 3370.5,390C 3371.09,389.536 3371.76,389.369 3372.5,389.5 Z"/></g>
<g><path style="opacity:0.997" fill="#398eeb" d="M 3424.5,695.5 C 3424.35,696.552 3424.52,697.552 3425,698.5C 3454.08,716.121 3483.25,733.455 3512.5,750.5C 3464.04,800.448 3413.04,847.948 3359.5,893C 3315.33,932.4 3269.33,969.4 3221.5,1004C 3145.83,1053.99 3071.49,1105.99 2998.5,1160C 2967.81,1184.03 2937.14,1208.03 2906.5,1232C 2862.95,1267.88 2820.28,1304.88 2778.5,1343C 2761.41,1357.38 2743.75,1371.05 2725.5,1384C 2699.55,1399.67 2672.22,1412.67 2643.5,1423C 2572.1,1444.47 2500.76,1466.13 2429.5,1488C 2376.87,1504.87 2324.54,1522.54 2272.5,1541C 2217.63,1561.93 2171.13,1594.43 2133,1638.5C 2127.45,1643.89 2122.12,1649.56 2117,1655.5C 2079.87,1703.1 2044.2,1751.77 2010,1801.5C 2008.69,1803.19 2007.19,1804.53 2005.5,1805.5C 1938.85,1726.85 1866.51,1653.85 1788.5,1586.5C 1792.17,1572 1795,1557.34 1797,1542.5C 1797.5,1528.84 1797.67,1515.17 1797.5,1501.5C 1830.08,1454.72 1865.58,1410.06 1904,1367.5C 1956.2,1313.63 2019.37,1278.8 2093.5,1263C 2128.32,1255.64 2163.32,1249.3 2198.5,1244C 2215.47,1241.89 2232.47,1240.05 2249.5,1238.5C 2342.14,1233.3 2434.47,1224.8 2526.5,1213C 2581.6,1205.81 2636.27,1195.81 2690.5,1183C 2775.46,1157.68 2854.13,1119.85 2926.5,1069.5C 2927.17,1069.5 2927.5,1069.17 2927.5,1068.5C 3049.1,991.736 3166.43,908.903 3279.5,820C 3328.94,779.726 3377.27,738.226 3424.5,695.5 Z"/></g>
<g><path style="opacity:0.998" fill="#f2a46f" d="M 1797.5,1501.5 C 1797.67,1515.17 1797.5,1528.84 1797,1542.5C 1795,1557.34 1792.17,1572 1788.5,1586.5C 1775.74,1622.36 1754.41,1652.03 1724.5,1675.5C 1659.94,1721.95 1596.27,1769.62 1533.5,1818.5C 1536.38,1812.78 1540.55,1808.11 1546,1804.5C 1549.95,1798.88 1554.29,1793.54 1559,1788.5C 1565.74,1780.41 1571.74,1771.74 1577,1762.5C 1579.18,1761.07 1581.18,1759.4 1583,1757.5C 1609.01,1720.48 1633.01,1682.14 1655,1642.5C 1669.72,1614.99 1680.06,1585.99 1686,1555.5C 1689.87,1528.46 1682.87,1504.8 1665,1484.5C 1644.68,1465.87 1621.51,1451.71 1595.5,1442C 1574,1433.72 1552,1427.06 1529.5,1422C 1516.6,1420.64 1503.93,1418.81 1491.5,1416.5C 1513.62,1399.55 1535.62,1382.38 1557.5,1365C 1614.52,1350.24 1668.52,1357.24 1719.5,1386C 1763.09,1412.7 1789.09,1451.2 1797.5,1501.5 Z"/></g>
<g><path style="opacity:0.999" fill="#f4b475" d="M 1491.5,1416.5 C 1503.93,1418.81 1516.6,1420.64 1529.5,1422C 1552,1427.06 1574,1433.72 1595.5,1442C 1621.51,1451.71 1644.68,1465.87 1665,1484.5C 1682.87,1504.8 1689.87,1528.46 1686,1555.5C 1680.06,1585.99 1669.72,1614.99 1655,1642.5C 1633.01,1682.14 1609.01,1720.48 1583,1757.5C 1581.18,1759.4 1579.18,1761.07 1577,1762.5C 1571.74,1771.74 1565.74,1780.41 1559,1788.5C 1554.29,1793.54 1549.95,1798.88 1546,1804.5C 1540.55,1808.11 1536.38,1812.78 1533.5,1818.5C 1439.92,1889.73 1349.25,1964.73 1261.5,2043.5C 1199.83,1937.11 1122.83,1842.78 1030.5,1760.5C 1078.48,1722.85 1127.48,1686.69 1177.5,1652C 1283.46,1575.21 1388.12,1496.71 1491.5,1416.5 Z"/></g>
<g><path style="opacity:1" fill="#74bc8c" d="M 1788.5,1586.5 C 1866.51,1653.85 1938.85,1726.85 2005.5,1805.5C 2003.92,1808.93 2002.09,1812.26 2000,1815.5C 1986.47,1834.6 1972.97,1853.6 1959.5,1872.5C 1957.06,1869.79 1954.72,1866.96 1952.5,1864C 1882.72,1798.53 1809.72,1737.2 1733.5,1680C 1730.71,1677.94 1727.71,1676.44 1724.5,1675.5C 1754.41,1652.03 1775.74,1622.36 1788.5,1586.5 Z"/></g>
<g><path style="opacity:0.998" fill="#398eeb" d="M 1724.5,1675.5 C 1727.71,1676.44 1730.71,1677.94 1733.5,1680C 1809.72,1737.2 1882.72,1798.53 1952.5,1864C 1954.72,1866.96 1957.06,1869.79 1959.5,1872.5C 1928.3,1917.87 1897.3,1963.54 1866.5,2009.5C 1853.51,2027.2 1839.85,2044.2 1825.5,2060.5C 1821.39,2062.39 1817.39,2064.55 1813.5,2067C 1744.2,2116.49 1669.87,2156.82 1590.5,2188C 1508.17,2218 1423.17,2235.5 1335.5,2240.5C 1357.59,2286.33 1374.26,2334 1385.5,2383.5C 1381.18,2387.75 1376.35,2391.42 1371,2394.5C 1368.36,2449.04 1355.7,2501.04 1333,2550.5C 1325.91,2565.61 1317.91,2580.27 1309,2594.5C 1299,2608.5 1289,2622.5 1279,2636.5C 1256.29,2661.54 1233.96,2686.87 1212,2712.5C 1190.85,2738.81 1170.18,2765.47 1150,2792.5C 1095.53,2868.64 1043.87,2946.64 995,3026.5C 993.644,3027.38 992.144,3027.71 990.5,3027.5C 990.047,3026.54 989.381,3025.71 988.5,3025C 957.923,3009.88 927.256,2995.04 896.5,2980.5C 893.883,2979.21 891.55,2977.55 889.5,2975.5C 949.209,2870.4 1011.71,2767.07 1077,2665.5C 1120.29,2594.53 1160.13,2521.53 1196.5,2446.5C 1150.84,2445.5 1105.17,2445.17 1059.5,2445.5C 1058.96,2445.44 1058.62,2445.11 1058.5,2444.5C 1064.01,2431.89 1062.18,2420.56 1053,2410.5C 1038.95,2395.73 1023.78,2382.23 1007.5,2370C 984.851,2353.67 961.518,2338.34 937.5,2324C 921.173,2310.85 916.507,2294.35 923.5,2274.5C 927.635,2262.76 931.969,2251.09 936.5,2239.5C 937.952,2230.84 939.452,2222.17 941,2213.5C 941.717,2212.96 942.217,2212.29 942.5,2211.5C 943.167,2211.5 943.5,2211.17 943.5,2210.5C 996.795,2218.45 1047.46,2210.28 1095.5,2186C 1125.62,2167.72 1152.95,2145.89 1177.5,2120.5C 1205.51,2094.83 1233.51,2069.16 1261.5,2043.5C 1349.25,1964.73 1439.92,1889.73 1533.5,1818.5C 1596.27,1769.62 1659.94,1721.95 1724.5,1675.5 Z"/></g>
<g><path style="opacity:1" fill="#78bc88" d="M 1030.5,1760.5 C 1122.83,1842.78 1199.83,1937.11 1261.5,2043.5C 1233.51,2069.16 1205.51,2094.83 1177.5,2120.5C 1135.47,2061.79 1091.97,2004.12 1047,1947.5C 1013.22,1906.6 978.052,1866.93 941.5,1828.5C 970.858,1805.48 1000.52,1782.81 1030.5,1760.5 Z"/></g>
<g><path style="opacity:0.999" fill="#f4b375" d="M 941.5,1828.5 C 978.052,1866.93 1013.22,1906.6 1047,1947.5C 1091.97,2004.12 1135.47,2061.79 1177.5,2120.5C 1152.95,2145.89 1125.62,2167.72 1095.5,2186C 1047.46,2210.28 996.795,2218.45 943.5,2210.5C 943.167,2210.5 942.833,2210.5 942.5,2210.5C 901.432,2200.4 868.432,2178.4 843.5,2144.5C 848.735,2129.37 856.569,2115.7 867,2103.5C 877.167,2092.67 887.333,2081.83 897.5,2071C 911.113,2068.72 919.613,2060.89 923,2047.5C 927.226,2022.76 917.393,2006.93 893.5,2000C 878.136,1999.6 866.636,2006.1 859,2019.5C 853.08,2033.34 855.247,2045.84 865.5,2057C 856.303,2065.86 847.469,2075.03 839,2084.5C 835.054,2090.78 830.721,2096.78 826,2102.5C 824.991,2104.02 824.491,2105.69 824.5,2107.5C 823.5,2107.5 822.5,2107.5 821.5,2107.5C 810.366,2076.53 807.866,2044.86 814,2012.5C 824.713,1963.74 846.046,1920.41 878,1882.5C 898.208,1863.11 919.375,1845.11 941.5,1828.5 Z"/></g>
<g><path style="opacity:0.995" fill="#dd8b6e" d="M 843.5,2144.5 C 838.905,2154.24 837.405,2164.57 839,2175.5C 846.82,2198.8 855.32,2221.8 864.5,2244.5C 868.597,2256.14 873.264,2267.47 878.5,2278.5C 890.387,2304.33 898.553,2331.33 903,2359.5C 904.218,2367.47 905.218,2375.47 906,2383.5C 907.471,2415.82 907.804,2448.15 907,2480.5C 905.902,2494.28 904.069,2507.95 901.5,2521.5C 898.854,2531.13 895.354,2540.46 891,2549.5C 874.338,2578.17 851.505,2600.5 822.5,2616.5C 813.032,2621.07 803.698,2625.9 794.5,2631C 758.765,2644.55 721.765,2652.21 683.5,2654C 665.152,2654.5 646.819,2654.5 628.5,2654C 623.784,2661.72 617.45,2667.72 609.5,2672C 603.229,2673.82 597.229,2675.65 591.5,2677.5C 558.068,2673.66 543.568,2655 548,2621.5C 550.279,2612.41 555.112,2605.07 562.5,2599.5C 588.252,2590.69 609.918,2596.86 627.5,2618C 675.429,2623.73 722.762,2620.73 769.5,2609C 792.133,2602.02 812.799,2591.35 831.5,2577C 839.228,2570.46 845.561,2562.96 850.5,2554.5C 851.338,2554.16 851.672,2553.49 851.5,2552.5C 851.5,2552.17 851.5,2551.83 851.5,2551.5C 859.349,2541.17 864.349,2529.51 866.5,2516.5C 867.117,2516.39 867.617,2516.06 868,2515.5C 870.569,2501.94 872.236,2488.28 873,2474.5C 875.264,2425.57 872.931,2376.91 866,2328.5C 863.329,2317.82 860.663,2307.15 858,2296.5C 856.795,2292.38 855.295,2288.38 853.5,2284.5C 851.604,2283.53 849.604,2283.2 847.5,2283.5C 848.919,2282.55 850.585,2282.22 852.5,2282.5C 849.183,2270.86 844.517,2259.86 838.5,2249.5C 827.756,2229.68 817.256,2209.68 807,2189.5C 802.036,2170.88 802.869,2152.55 809.5,2134.5C 810.185,2132.59 810.685,2130.59 811,2128.5C 814.542,2121.42 818.042,2114.42 821.5,2107.5C 822.5,2107.5 823.5,2107.5 824.5,2107.5C 824.491,2105.69 824.991,2104.02 826,2102.5C 830.721,2096.78 835.054,2090.78 839,2084.5C 847.469,2075.03 856.303,2065.86 865.5,2057C 855.247,2045.84 853.08,2033.34 859,2019.5C 866.636,2006.1 878.136,1999.6 893.5,2000C 917.393,2006.93 927.226,2022.76 923,2047.5C 919.613,2060.89 911.113,2068.72 897.5,2071C 887.333,2081.83 877.167,2092.67 867,2103.5C 856.569,2115.7 848.735,2129.37 843.5,2144.5 Z"/></g>
<g><path style="opacity:0.996" fill="#e65b71" d="M 809.5,2134.5 C 802.869,2152.55 802.036,2170.88 807,2189.5C 817.256,2209.68 827.756,2229.68 838.5,2249.5C 791.688,2257.91 746.688,2272.07 703.5,2292C 689.738,2298.88 676.071,2305.71 662.5,2312.5C 647.576,2305.78 631.909,2302.78 615.5,2303.5C 568.892,2305.44 523.225,2312.78 478.5,2325.5C 473.444,2335.61 468.944,2345.94 465,2356.5C 464.502,2358.54 463.335,2359.88 461.5,2360.5C 429.666,2356.92 400.666,2346.09 374.5,2328C 337.81,2297.03 330.31,2259.87 352,2216.5C 360.03,2202.14 370.53,2189.97 383.5,2180C 400.141,2168.98 417.475,2167.65 435.5,2176C 447.705,2185.87 460.705,2194.54 474.5,2202C 485.961,2206.7 497.295,2206.36 508.5,2201C 513.167,2198.33 517.833,2195.67 522.5,2193C 539.43,2178.07 554.93,2161.91 569,2144.5C 574.699,2134.81 580.366,2125.15 586,2115.5C 610.395,2084.49 642.228,2065.99 681.5,2060C 693.219,2058.48 704.553,2059.82 715.5,2064C 721.341,2068.16 725.175,2073.66 727,2080.5C 727.106,2095.21 727.773,2109.87 729,2124.5C 730.963,2130.8 734.797,2135.63 740.5,2139C 744.281,2141.22 748.281,2142.89 752.5,2144C 760.167,2144.67 767.833,2144.67 775.5,2144C 787.038,2141.45 798.371,2138.28 809.5,2134.5 Z"/></g>
<g><path style="opacity:0.996" fill="#2c7ee0" d="M 1825.5,2060.5 C 1763.05,2134.24 1692.39,2199.07 1613.5,2255C 1612.18,2255.82 1611.51,2256.98 1611.5,2258.5C 1610.88,2260.34 1609.54,2261.5 1607.5,2262C 1560.74,2276.38 1516.74,2296.72 1475.5,2323C 1473.62,2324.05 1472.28,2325.55 1471.5,2327.5C 1445.58,2344.14 1419.92,2361.3 1394.5,2379C 1391.45,2380.53 1388.45,2382.03 1385.5,2383.5C 1374.26,2334 1357.59,2286.33 1335.5,2240.5C 1423.17,2235.5 1508.17,2218 1590.5,2188C 1669.87,2156.82 1744.2,2116.49 1813.5,2067C 1817.39,2064.55 1821.39,2062.39 1825.5,2060.5 Z"/></g>
<g><path style="opacity:1" fill="#e55b71" d="M 843.5,2144.5 C 868.432,2178.4 901.432,2200.4 942.5,2210.5C 942.5,2210.83 942.5,2211.17 942.5,2211.5C 942.217,2212.29 941.717,2212.96 941,2213.5C 939.452,2222.17 937.952,2230.84 936.5,2239.5C 912.408,2240.06 888.408,2241.73 864.5,2244.5C 855.32,2221.8 846.82,2198.8 839,2175.5C 837.405,2164.57 838.905,2154.24 843.5,2144.5 Z"/></g>
<g><path style="opacity:0.983" fill="#fefffe" d="M -0.5,2380.5 C -0.5,2366.5 -0.5,2352.5 -0.5,2338.5C 13.2283,2281.28 49.2283,2248.11 107.5,2239C 169.861,2236.91 212.361,2264.74 235,2322.5C 249.515,2379.21 233.682,2425.05 187.5,2460C 142.665,2486.94 97.6651,2487.27 52.5,2461C 24.5739,2440.91 6.90721,2414.08 -0.5,2380.5 Z"/></g>
<g><path style="opacity:1" fill="#8eb087" d="M 936.5,2239.5 C 931.969,2251.09 927.635,2262.76 923.5,2274.5C 908.425,2275.04 893.425,2276.37 878.5,2278.5C 873.264,2267.47 868.597,2256.14 864.5,2244.5C 888.408,2241.73 912.408,2240.06 936.5,2239.5 Z"/></g>
<g><path style="opacity:1" fill="#8fb186" d="M 838.5,2249.5 C 844.517,2259.86 849.183,2270.86 852.5,2282.5C 850.585,2282.22 848.919,2282.55 847.5,2283.5C 830.784,2286.43 814.451,2290.43 798.5,2295.5C 788.82,2297.73 779.486,2300.73 770.5,2304.5C 745.065,2312.72 720.731,2323.39 697.5,2336.5C 684.206,2342.81 671.54,2350.14 659.5,2358.5C 656.739,2353.9 653.073,2350.07 648.5,2347C 640.251,2343.31 631.918,2340.14 623.5,2337.5C 636.232,2328.77 649.232,2320.44 662.5,2312.5C 676.071,2305.71 689.738,2298.88 703.5,2292C 746.688,2272.07 791.688,2257.91 838.5,2249.5 Z"/></g>
<g><path style="opacity:0.995" fill="#3386e7" d="M 1611.5,2258.5 C 1646.75,2308.5 1660.25,2364.16 1652,2425.5C 1610.72,2617.59 1569.05,2809.59 1527,3001.5C 1526.32,3004.55 1525.49,3007.55 1524.5,3010.5C 1523,3011.05 1521.33,3011.05 1519.5,3010.5C 1511.41,3007.89 1503.08,3005.73 1494.5,3004C 1471.57,3000.07 1448.57,2996.57 1425.5,2993.5C 1423.74,2993.59 1422.08,2993.92 1420.5,2994.5C 1426.03,2923.92 1435.2,2853.59 1448,2783.5C 1458.3,2734.96 1467.97,2686.3 1477,2637.5C 1480.95,2610.21 1484.61,2582.87 1488,2555.5C 1490.38,2529.55 1491.88,2503.55 1492.5,2477.5C 1492.87,2426.4 1485.87,2376.4 1471.5,2327.5C 1472.28,2325.55 1473.62,2324.05 1475.5,2323C 1516.74,2296.72 1560.74,2276.38 1607.5,2262C 1609.54,2261.5 1610.88,2260.34 1611.5,2258.5 Z"/></g>
<g><path style="opacity:0.996" fill="#e55b71" d="M 923.5,2274.5 C 916.507,2294.35 921.173,2310.85 937.5,2324C 961.518,2338.34 984.851,2353.67 1007.5,2370C 1023.78,2382.23 1038.95,2395.73 1053,2410.5C 1062.18,2420.56 1064.01,2431.89 1058.5,2444.5C 1058.62,2445.11 1058.96,2445.44 1059.5,2445.5C 1051.58,2467.75 1035.92,2480.41 1012.5,2483.5C 999.768,2481.59 987.102,2479.26 974.5,2476.5C 966.529,2477.1 959.195,2479.6 952.5,2484C 945.993,2493.33 938.993,2502.33 931.5,2511C 922.223,2516.59 912.223,2520.09 901.5,2521.5C 904.069,2507.95 905.902,2494.28 907,2480.5C 907.804,2448.15 907.471,2415.82 906,2383.5C 905.218,2375.47 904.218,2367.47 903,2359.5C 898.553,2331.33 890.387,2304.33 878.5,2278.5C 893.425,2276.37 908.425,2275.04 923.5,2274.5 Z"/></g>
<g><path style="opacity:1" fill="#e55c71" d="M 847.5,2283.5 C 849.604,2283.2 851.604,2283.53 853.5,2284.5C 855.295,2288.38 856.795,2292.38 858,2296.5C 860.663,2307.15 863.329,2317.82 866,2328.5C 872.931,2376.91 875.264,2425.57 873,2474.5C 872.236,2488.28 870.569,2501.94 868,2515.5C 867.617,2516.06 867.117,2516.39 866.5,2516.5C 863.198,2515.71 859.865,2515.04 856.5,2514.5C 848.696,2514.47 840.696,2514.3 832.5,2514C 810.539,2510.38 800.039,2497.55 801,2475.5C 802.137,2462.45 807.637,2451.61 817.5,2443C 826.833,2437 836.167,2431 845.5,2425C 854.03,2418.46 858.03,2409.79 857.5,2399C 856.781,2385.86 852.948,2373.7 846,2362.5C 834.582,2344.66 822.915,2327 811,2309.5C 807.52,2304.2 803.353,2299.53 798.5,2295.5C 814.451,2290.43 830.784,2286.43 847.5,2283.5 Z"/></g>
<g><path style="opacity:0.999" fill="#f8c890" d="M 798.5,2295.5 C 803.353,2299.53 807.52,2304.2 811,2309.5C 822.915,2327 834.582,2344.66 846,2362.5C 852.948,2373.7 856.781,2385.86 857.5,2399C 858.03,2409.79 854.03,2418.46 845.5,2425C 836.167,2431 826.833,2437 817.5,2443C 807.637,2451.61 802.137,2462.45 801,2475.5C 800.039,2497.55 810.539,2510.38 832.5,2514C 840.696,2514.3 848.696,2514.47 856.5,2514.5C 855.158,2526.89 853.491,2539.22 851.5,2551.5C 851.5,2551.83 851.5,2552.17 851.5,2552.5C 850.662,2552.84 850.328,2553.51 850.5,2554.5C 845.561,2562.96 839.228,2570.46 831.5,2577C 812.799,2591.35 792.133,2602.02 769.5,2609C 722.762,2620.73 675.429,2623.73 627.5,2618C 609.918,2596.86 588.252,2590.69 562.5,2599.5C 560.918,2585.42 558.084,2571.42 554,2557.5C 552.442,2550.23 548.275,2547.73 541.5,2550C 533.194,2558.31 524.86,2566.64 516.5,2575C 506.287,2583.39 494.953,2585.39 482.5,2581C 457.033,2567.93 442.533,2547.1 439,2518.5C 438.088,2513.54 437.588,2508.54 437.5,2503.5C 437.859,2501.63 438.859,2500.13 440.5,2499C 463.402,2487.14 487.069,2476.8 511.5,2468C 556.9,2448.48 598.566,2423.15 636.5,2392C 645.501,2384.34 653.001,2375.51 659,2365.5C 659.497,2363.19 659.663,2360.86 659.5,2358.5C 671.54,2350.14 684.206,2342.81 697.5,2336.5C 704.675,2343.84 712.341,2350.67 720.5,2357C 734.497,2362.33 745.331,2358.5 753,2345.5C 760.139,2331.94 765.973,2318.28 770.5,2304.5C 779.486,2300.73 788.82,2297.73 798.5,2295.5 Z"/></g>
<g><path style="opacity:1" fill="#f8c790" d="M 662.5,2312.5 C 649.232,2320.44 636.232,2328.77 623.5,2337.5C 599.587,2332.93 575.587,2332.43 551.5,2336C 520.702,2342.66 490.702,2351.82 461.5,2363.5C 461.5,2362.5 461.5,2361.5 461.5,2360.5C 463.335,2359.88 464.502,2358.54 465,2356.5C 468.944,2345.94 473.444,2335.61 478.5,2325.5C 523.225,2312.78 568.892,2305.44 615.5,2303.5C 631.909,2302.78 647.576,2305.78 662.5,2312.5 Z"/></g>
<g><path style="opacity:1" fill="#e55c71" d="M 770.5,2304.5 C 765.973,2318.28 760.139,2331.94 753,2345.5C 745.331,2358.5 734.497,2362.33 720.5,2357C 712.341,2350.67 704.675,2343.84 697.5,2336.5C 720.731,2323.39 745.065,2312.72 770.5,2304.5 Z"/></g>
<g><path style="opacity:0.993" fill="#dd8c6f" d="M 623.5,2337.5 C 631.918,2340.14 640.251,2343.31 648.5,2347C 653.073,2350.07 656.739,2353.9 659.5,2358.5C 659.663,2360.86 659.497,2363.19 659,2365.5C 653.001,2375.51 645.501,2384.34 636.5,2392C 598.566,2423.15 556.9,2448.48 511.5,2468C 487.069,2476.8 463.402,2487.14 440.5,2499C 438.859,2500.13 437.859,2501.63 437.5,2503.5C 431.959,2504.62 427.626,2502.96 424.5,2498.5C 439.602,2490.29 455.269,2483.12 471.5,2477C 521.171,2454.34 567.504,2426.34 610.5,2393C 629.033,2375.21 626.033,2362.21 601.5,2354C 587.531,2348.57 573.198,2347.24 558.5,2350C 548.871,2352.21 539.204,2354.21 529.5,2356C 484.487,2371.01 440.487,2388.51 397.5,2408.5C 396.558,2404.03 395.558,2399.53 394.5,2395C 407.784,2386.69 421.784,2379.35 436.5,2373C 444.855,2369.82 453.188,2366.65 461.5,2363.5C 490.702,2351.82 520.702,2342.66 551.5,2336C 575.587,2332.43 599.587,2332.93 623.5,2337.5 Z"/></g>
<g><path style="opacity:0.998" fill="#fef9f5" d="M 424.5,2498.5 C 418.971,2489.44 414.471,2479.77 411,2469.5C 405.077,2449.48 400.577,2429.14 397.5,2408.5C 440.487,2388.51 484.487,2371.01 529.5,2356C 539.204,2354.21 548.871,2352.21 558.5,2350C 573.198,2347.24 587.531,2348.57 601.5,2354C 626.033,2362.21 629.033,2375.21 610.5,2393C 567.504,2426.34 521.171,2454.34 471.5,2477C 455.269,2483.12 439.602,2490.29 424.5,2498.5 Z"/></g>
<g><path style="opacity:0.962" fill="#fefffe" d="M 280.5,2427.5 C 312.818,2424.55 333.318,2438.55 342,2469.5C 345.434,2501.83 331.601,2522.33 300.5,2531C 278.363,2534.17 260.53,2527 247,2509.5C 231.286,2479.53 236.786,2454.37 263.5,2434C 269.265,2431.77 274.932,2429.61 280.5,2427.5 Z"/></g>
<g><path style="opacity:0.941" fill="#fefffe" d="M 146.5,2495.5 C 176.131,2494.63 189.965,2508.96 188,2538.5C 181.067,2560.23 166.234,2569.06 143.5,2565C 124.994,2557.83 116.828,2544.33 119,2524.5C 122.546,2509.45 131.713,2499.79 146.5,2495.5 Z"/></g>
<g><path style="opacity:0.897" fill="#fefffe" d="M 234.5,2564.5 C 244.257,2562.7 251.424,2566.04 256,2574.5C 259.326,2593.51 251.492,2601.67 232.5,2599C 221.479,2592.94 218.646,2584.1 224,2572.5C 226.271,2568.04 229.771,2565.38 234.5,2564.5 Z"/></g>
<g><path style="opacity:0.988" fill="#f8c890" d="M 822.5,2616.5 C 780.431,2682.4 720.098,2712.24 641.5,2706C 625.53,2703.18 611.196,2696.84 598.5,2687C 596.035,2683.89 593.702,2680.73 591.5,2677.5C 597.229,2675.65 603.229,2673.82 609.5,2672C 617.45,2667.72 623.784,2661.72 628.5,2654C 646.819,2654.5 665.152,2654.5 683.5,2654C 721.765,2652.21 758.765,2644.55 794.5,2631C 803.698,2625.9 813.032,2621.07 822.5,2616.5 Z"/></g>
<g><path style="opacity:0.99" fill="#f7c68f" d="M 896.5,2980.5 C 927.256,2995.04 957.923,3009.88 988.5,3025C 989.381,3025.71 990.047,3026.54 990.5,3027.5C 982.497,3057.2 969.164,3084.2 950.5,3108.5C 943.689,3114.7 935.689,3117.2 926.5,3116C 922.999,3113.67 921.333,3110.33 921.5,3106C 922.122,3096.47 924.956,3087.63 930,3079.5C 933.339,3074.01 936.839,3068.67 940.5,3063.5C 939.318,3061.08 937.318,3060.08 934.5,3060.5C 929.172,3060.92 924.172,3062.42 919.5,3065C 908.957,3072.54 900.124,3081.71 893,3092.5C 882.73,3110.3 875.397,3129.3 871,3149.5C 867.597,3153.18 864.097,3156.68 860.5,3160C 850.373,3164.01 844.206,3160.51 842,3149.5C 836.893,3126.76 834.893,3103.76 836,3080.5C 837.773,3062.16 843.439,3045.16 853,3029.5C 868.079,3013.59 882.579,2997.26 896.5,2980.5 Z"/></g>
<g><path style="opacity:0.989" fill="#f7c68f" d="M 1519.5,3010.5 C 1521.31,3031.9 1520.81,3053.23 1518,3074.5C 1514.46,3085.46 1509.96,3095.96 1504.5,3106C 1496.84,3109.06 1491.68,3106.56 1489,3098.5C 1488.67,3085.5 1488.33,3072.5 1488,3059.5C 1476.39,3038.99 1464.39,3038.66 1452,3058.5C 1443.83,3073.99 1439.33,3090.49 1438.5,3108C 1439.5,3120.69 1441.67,3133.19 1445,3145.5C 1446.98,3160.6 1443.98,3174.6 1436,3187.5C 1434.6,3189.07 1433.1,3190.4 1431.5,3191.5C 1429.17,3191.5 1426.83,3191.5 1424.5,3191.5C 1422.65,3190.31 1420.81,3188.98 1419,3187.5C 1399.51,3159.04 1388.35,3127.54 1385.5,3093C 1385.85,3082.55 1387.68,3072.38 1391,3062.5C 1401.9,3040.29 1411.74,3017.62 1420.5,2994.5C 1422.08,2993.92 1423.74,2993.59 1425.5,2993.5C 1448.57,2996.57 1471.57,3000.07 1494.5,3004C 1503.08,3005.73 1511.41,3007.89 1519.5,3010.5 Z"/></g>
</svg>
