<?xml version="1.0" encoding="UTF-8"?>
<!DOCTYPE svg PUBLIC "-//W3C//DTD SVG 1.1//EN" "http://www.w3.org/Graphics/SVG/1.1/DTD/svg11.dtd">
<svg xmlns="http://www.w3.org/2000/svg" version="1.1" width="3700px" height="2535px" style="shape-rendering:geometricPrecision; text-rendering:geometricPrecision; image-rendering:optimizeQuality; fill-rule:evenodd; clip-rule:evenodd" xmlns:xlink="http://www.w3.org/1999/xlink">
<g><path style="opacity:0.98" fill="#6daab9" d="M 1560.5,186.5 C 1553.68,149.521 1540.18,115.187 1520,83.5C 1512.34,72.3428 1504.5,61.3428 1496.5,50.5C 1496.94,50.5654 1497.27,50.3988 1497.5,50C 1489.09,29.5599 1494.42,13.8933 1513.5,3C 1519.69,0.56736 1526.02,0.0673596 1532.5,1.5C 1561.48,49.6135 1583.98,100.614 1600,154.5C 1601.88,162.862 1601.88,171.195 1600,179.5C 1596.97,183.938 1592.8,186.771 1587.5,188C 1578.39,188.928 1569.39,188.428 1560.5,186.5 Z"/></g>
<g><path style="opacity:0.991" fill="#7fcabe" d="M 1496.5,50.5 C 1504.5,61.3428 1512.34,72.3428 1520,83.5C 1540.18,115.187 1553.68,149.521 1560.5,186.5C 1556.17,185.668 1552,184.334 1548,182.5C 1509.12,207.964 1466.62,224.298 1420.5,231.5C 1402.11,204.067 1385.78,175.401 1371.5,145.5C 1397.17,114.325 1426.51,87.1579 1459.5,64C 1471.03,57.23 1483.37,52.73 1496.5,50.5 Z"/></g>
<g><path style="opacity:0.975" fill="#6daab9" d="M 1283.5,90.5 C 1241.02,111.227 1200.69,135.227 1162.5,162.5C 1158.96,152.71 1155.29,142.877 1151.5,133C 1184.02,83.5914 1228.02,69.4247 1283.5,90.5 Z"/></g>
<g><path style="opacity:0.996" fill="#80cabe" d="M 1283.5,90.5 C 1301.32,98.2423 1317.32,108.742 1331.5,122C 1338.14,129.636 1345.14,136.97 1352.5,144C 1355.37,145.935 1358.37,147.601 1361.5,149C 1363.55,149.49 1365.55,149.323 1367.5,148.5C 1371.68,186.543 1389.01,216.876 1419.5,239.5C 1428,262.467 1429.33,285.8 1423.5,309.5C 1390.02,347.583 1348.02,370.583 1297.5,378.5C 1271.43,357.275 1245.76,335.441 1220.5,313C 1218.92,311.906 1217.26,311.072 1215.5,310.5C 1206.41,293.742 1198.58,276.408 1192,258.5C 1181.85,226.573 1172.02,194.573 1162.5,162.5C 1200.69,135.227 1241.02,111.227 1283.5,90.5 Z"/></g>
<g><path style="opacity:0.996" fill="#898bfd" d="M 578.5,309.5 C 548.004,335.342 525.671,367.009 511.5,404.5C 505.191,420.095 499.857,436.095 495.5,452.5C 465.38,466.388 436.38,482.055 408.5,499.5C 400.311,493.936 391.311,491.77 381.5,493C 373.741,498.014 369.741,505.181 369.5,514.5C 368.677,517.977 368.177,521.644 368,525.5C 313.507,563.138 264.007,606.805 219.5,656.5C 165.577,641.097 110.577,635.264 54.5,639C 39.12,636.956 29.2867,628.456 25,613.5C 18.559,577.157 28.7257,546.323 55.5,521C 67.735,512.714 80.735,505.714 94.5,500C 112.412,489.644 119.578,474.144 116,453.5C 111.637,432.604 101.47,415.104 85.5,401C 76.364,393.266 66.6973,386.266 56.5,380C 41.9039,371.731 27.5706,363.064 13.5,354C 7.84244,349.189 3.17577,343.689 -0.5,337.5C -0.5,332.833 -0.5,328.167 -0.5,323.5C 7.08459,310.419 17.7513,300.586 31.5,294C 110.253,254.869 192.586,244.702 278.5,263.5C 273.105,227.45 276.938,192.45 290,158.5C 316.968,99.4347 361.134,80.6014 422.5,102C 474.847,123.352 516.68,157.518 548,204.5C 567.778,236.672 577.945,271.672 578.5,309.5 Z"/></g>
<g><path style="opacity:0.985" fill="#6daab9" d="M 1371.5,145.5 C 1385.78,175.401 1402.11,204.067 1420.5,231.5C 1419.5,231.5 1418.5,231.5 1417.5,231.5C 1417.96,234.221 1418.63,236.888 1419.5,239.5C 1389.01,216.876 1371.68,186.543 1367.5,148.5C 1368.8,147.512 1370.13,146.512 1371.5,145.5 Z"/></g>
<g><path style="opacity:0.985" fill="#f7c893" d="M 578.5,309.5 C 579.246,321.572 578.579,333.572 576.5,345.5C 550.765,360.563 529.098,380.229 511.5,404.5C 525.671,367.009 548.004,335.342 578.5,309.5 Z"/></g>
<g><path style="opacity:0.967" fill="#f0c6a0" d="M 1423.5,309.5 C 1410.82,354.343 1381.82,382.51 1336.5,394C 1330.25,395.487 1323.91,396.32 1317.5,396.5C 1310.51,390.842 1303.84,384.842 1297.5,378.5C 1348.02,370.583 1390.02,347.583 1423.5,309.5 Z"/></g>
<g><path style="opacity:0.995" fill="#f3b375" d="M 1215.5,310.5 C 1217.26,311.072 1218.92,311.906 1220.5,313C 1245.76,335.441 1271.43,357.275 1297.5,378.5C 1303.84,384.842 1310.51,390.842 1317.5,396.5C 1284.42,616.53 1224.75,828.863 1138.5,1033.5C 1052.96,1017.1 970.298,991.433 890.5,956.5C 889.479,957.002 889.312,957.668 890,958.5C 891.707,960.037 893.207,961.704 894.5,963.5C 842.272,950.816 797.772,925.149 761,886.5C 743.037,864.912 730.037,840.578 722,813.5C 716.047,782.578 726.547,759.078 753.5,743C 763.842,737.397 774.508,732.897 785.5,729.5C 869.256,739.03 947.423,765.03 1020,807.5C 1086.03,643.08 1151.86,478.58 1217.5,314C 1217.02,312.697 1216.36,311.531 1215.5,310.5 Z"/></g>
<g><path style="opacity:0.988" fill="#63ada6" d="M 642.5,330.5 C 609.408,344.202 579.408,362.702 552.5,386C 533.91,404.021 519.41,424.855 509,448.5C 505.77,458.183 508.936,464.35 518.5,467C 532.177,466.866 545.511,464.532 558.5,460C 608.99,442.781 653.323,415.947 691.5,379.5C 697.392,390.282 703.059,401.282 708.5,412.5C 699.105,417.529 689.772,422.529 680.5,427.5C 657.522,437.988 634.522,448.488 611.5,459C 583.629,471.624 554.629,480.624 524.5,486C 517.797,486.713 511.13,486.546 504.5,485.5C 495.417,483.023 490.917,477.023 491,467.5C 492.967,462.63 494.467,457.63 495.5,452.5C 499.857,436.095 505.191,420.095 511.5,404.5C 529.098,380.229 550.765,360.563 576.5,345.5C 593.878,336.459 610.212,325.793 625.5,313.5C 631.521,318.854 637.188,324.521 642.5,330.5 Z"/></g>
<g><path style="opacity:0.996" fill="#f4f3f4" d="M 642.5,330.5 C 659.167,346.5 675.5,362.833 691.5,379.5C 653.323,415.947 608.99,442.781 558.5,460C 545.511,464.532 532.177,466.866 518.5,467C 508.936,464.35 505.77,458.183 509,448.5C 519.41,424.855 533.91,404.021 552.5,386C 579.408,362.702 609.408,344.202 642.5,330.5 Z"/></g>
<g><path style="opacity:0.998" fill="#f8c893" d="M 680.5,427.5 C 696.532,425.899 710.366,430.566 722,441.5C 730.782,453.182 733.449,466.182 730,480.5C 724.948,501.875 712.782,517.708 693.5,528C 699.942,531.302 705.942,535.135 711.5,539.5C 721.873,547.539 730.873,556.872 738.5,567.5C 739.649,573.769 740.315,580.102 740.5,586.5C 741.153,593.89 739.32,600.556 735,606.5C 731.833,609.667 728.667,612.833 725.5,616C 711.158,624.839 696.492,633.173 681.5,641C 650.846,656.77 619.846,671.77 588.5,686C 545.186,710.576 505.519,739.409 469.5,772.5C 472.619,746.257 473.786,719.924 473,693.5C 472.191,674.589 467.191,656.923 458,640.5C 453.017,633.181 446.517,627.681 438.5,624C 413.965,616.466 395.799,601.299 384,578.5C 380.326,571.608 377.159,564.608 374.5,557.5C 370.331,543.478 368.664,529.145 369.5,514.5C 369.741,505.181 373.741,498.014 381.5,493C 391.311,491.77 400.311,493.936 408.5,499.5C 418.897,506.363 430.23,511.029 442.5,513.5C 458.082,515.098 470.082,509.432 478.5,496.5C 487.238,492.816 495.905,489.149 504.5,485.5C 511.13,486.546 517.797,486.713 524.5,486C 554.629,480.624 583.629,471.624 611.5,459C 634.522,448.488 657.522,437.988 680.5,427.5 Z"/></g>
<g><path style="opacity:0.999" fill="#e5a084" d="M 495.5,452.5 C 494.467,457.63 492.967,462.63 491,467.5C 490.917,477.023 495.417,483.023 504.5,485.5C 495.905,489.149 487.238,492.816 478.5,496.5C 466.08,501.411 454.08,507.077 442.5,513.5C 430.23,511.029 418.897,506.363 408.5,499.5C 436.38,482.055 465.38,466.388 495.5,452.5 Z"/></g>
<g><path style="opacity:1" fill="#8e8cf8" d="M 478.5,496.5 C 470.082,509.432 458.082,515.098 442.5,513.5C 454.08,507.077 466.08,501.411 478.5,496.5 Z"/></g>
<g><path style="opacity:0.994" fill="#e5a084" d="M 369.5,514.5 C 368.664,529.145 370.331,543.478 374.5,557.5C 348.174,578.654 326.341,603.654 309,632.5C 300.254,648.994 291.254,665.327 282,681.5C 280.629,684.266 278.796,686.599 276.5,688.5C 260.092,673.456 241.092,662.79 219.5,656.5C 264.007,606.805 313.507,563.138 368,525.5C 368.177,521.644 368.677,517.977 369.5,514.5 Z"/></g>
<g><path style="opacity:0.964" fill="#339baf" d="M 758.5,632.5 C 758.5,629.167 758.5,625.833 758.5,622.5C 775.623,606.59 778.123,588.59 766,568.5C 759.029,560.058 750.529,557.558 740.5,561C 738.984,562.897 738.317,565.064 738.5,567.5C 730.873,556.872 721.873,547.539 711.5,539.5C 727.271,526.247 744.938,523.081 764.5,530C 790.19,545.247 798.023,567.08 788,595.5C 781.311,610.354 771.478,622.687 758.5,632.5 Z"/></g>
<g><path style="opacity:0.994" fill="#898bfd" d="M 374.5,557.5 C 377.159,564.608 380.326,571.608 384,578.5C 395.799,601.299 413.965,616.466 438.5,624C 446.517,627.681 453.017,633.181 458,640.5C 467.191,656.923 472.191,674.589 473,693.5C 473.786,719.924 472.619,746.257 469.5,772.5C 468.9,773.9 467.9,774.9 466.5,775.5C 459.88,775.227 454.38,777.561 450,782.5C 443.79,791.585 438.623,801.252 434.5,811.5C 433.833,811.5 433.5,811.833 433.5,812.5C 433.5,812.833 433.5,813.167 433.5,813.5C 432.833,813.5 432.5,813.833 432.5,814.5C 425.747,825.006 418.747,835.34 411.5,845.5C 410.833,845.5 410.5,845.833 410.5,846.5C 409.833,846.5 409.5,846.833 409.5,847.5C 386.302,867.395 359.302,876.395 328.5,874.5C 330.895,837.681 327.729,801.348 319,765.5C 311.552,735.921 297.385,710.254 276.5,688.5C 278.796,686.599 280.629,684.266 282,681.5C 291.254,665.327 300.254,648.994 309,632.5C 326.341,603.654 348.174,578.654 374.5,557.5 Z"/></g>
<g><path style="opacity:0.985" fill="#11899d" d="M 758.5,622.5 C 757.508,622.328 756.842,622.662 756.5,623.5C 748.9,630.249 740.566,636.082 731.5,641C 703.045,654.394 674.711,668.061 646.5,682C 589.922,712.098 538.256,748.932 491.5,792.5C 457.112,822.677 428.945,857.677 407,897.5C 401.039,909.881 397.206,922.881 395.5,936.5C 394.514,954.09 394.181,971.757 394.5,989.5C 401.802,990.624 406.969,994.624 410,1001.5C 417.642,1021.88 410.475,1031.05 388.5,1029C 377.531,1025.23 373.865,1017.73 377.5,1006.5C 373.413,1002.33 370.913,997.327 370,991.5C 369.5,982.506 369.334,973.506 369.5,964.5C 374.88,922.69 388.214,883.69 409.5,847.5C 410.167,847.5 410.5,847.167 410.5,846.5C 411.167,846.5 411.5,846.167 411.5,845.5C 418.747,835.34 425.747,825.006 432.5,814.5C 433.167,814.5 433.5,814.167 433.5,813.5C 433.5,813.167 433.5,812.833 433.5,812.5C 434.167,812.5 434.5,812.167 434.5,811.5C 444.767,799.228 455.433,787.228 466.5,775.5C 467.9,774.9 468.9,773.9 469.5,772.5C 505.519,739.409 545.186,710.576 588.5,686C 619.846,671.77 650.846,656.77 681.5,641C 696.492,633.173 711.158,624.839 725.5,616C 728.667,612.833 731.833,609.667 735,606.5C 739.32,600.556 741.153,593.89 740.5,586.5C 740.315,580.102 739.649,573.769 738.5,567.5C 738.317,565.064 738.984,562.897 740.5,561C 750.529,557.558 759.029,560.058 766,568.5C 778.123,588.59 775.623,606.59 758.5,622.5 Z"/></g>
<g><path style="opacity:0.995" fill="#f8c892" d="M 756.5,623.5 C 757.167,626.5 757.833,629.5 758.5,632.5C 755.551,670.751 737.551,699.418 704.5,718.5C 637.257,747.463 570.257,776.796 503.5,806.5C 499.51,801.874 495.51,797.207 491.5,792.5C 538.256,748.932 589.922,712.098 646.5,682C 674.711,668.061 703.045,654.394 731.5,641C 740.566,636.082 748.9,630.249 756.5,623.5 Z"/></g>
<g><path style="opacity:0.828" fill="#a2b49f" d="M 756.5,623.5 C 756.842,622.662 757.508,622.328 758.5,622.5C 758.5,625.833 758.5,629.167 758.5,632.5C 757.833,629.5 757.167,626.5 756.5,623.5 Z"/></g>
<g><path style="opacity:0.999" fill="#f3a470" d="M 704.5,718.5 C 701.744,721.389 698.411,723.556 694.5,725C 724.928,724.432 755.262,725.932 785.5,729.5C 774.508,732.897 763.842,737.397 753.5,743C 726.547,759.078 716.047,782.578 722,813.5C 730.037,840.578 743.037,864.912 761,886.5C 797.772,925.149 842.272,950.816 894.5,963.5C 967.121,1042.39 1057.12,1083.72 1164.5,1087.5C 1227.46,1199.78 1273.46,1318.78 1302.5,1444.5C 1191.57,1461.59 1086.57,1496.25 987.5,1548.5C 975.196,1530.68 963.03,1512.68 951,1494.5C 937.033,1470.73 922.533,1447.4 907.5,1424.5C 860.253,1346.07 812.753,1267.74 765,1189.5C 753.947,1170.06 743.447,1150.39 733.5,1130.5C 720.298,1101.11 707.965,1071.44 696.5,1041.5C 687.035,1010.24 673.535,980.907 656,953.5C 624.939,914.619 586.106,886.286 539.5,868.5C 528.498,847.151 516.498,826.484 503.5,806.5C 570.257,776.796 637.257,747.463 704.5,718.5 Z"/></g>
<g><path style="opacity:0.996" fill="#2ebdc5" d="M 539.5,868.5 C 586.106,886.286 624.939,914.619 656,953.5C 673.535,980.907 687.035,1010.24 696.5,1041.5C 581.845,1079.66 475.845,1133.82 378.5,1204C 376.859,1205.13 375.859,1206.63 375.5,1208.5C 355.691,1176.59 342.858,1141.92 337,1104.5C 328.345,1061.41 334.678,1020.75 356,982.5C 359.979,976.033 364.479,970.033 369.5,964.5C 369.334,973.506 369.5,982.506 370,991.5C 370.913,997.327 373.413,1002.33 377.5,1006.5C 373.865,1017.73 377.531,1025.23 388.5,1029C 410.475,1031.05 417.642,1021.88 410,1001.5C 406.969,994.624 401.802,990.624 394.5,989.5C 394.181,971.757 394.514,954.09 395.5,936.5C 438.527,902.661 487.194,881.327 541.5,872.5C 540.82,871.14 540.153,869.807 539.5,868.5 Z"/></g>
<g><path style="opacity:1" fill="#f28466" d="M 1138.5,1033.5 C 1138.13,1035.44 1137.46,1037.27 1136.5,1039C 1146.73,1054.62 1156.06,1070.79 1164.5,1087.5C 1057.12,1083.72 967.121,1042.39 894.5,963.5C 893.207,961.704 891.707,960.037 890,958.5C 889.312,957.668 889.479,957.002 890.5,956.5C 970.298,991.433 1052.96,1017.1 1138.5,1033.5 Z"/></g>
<g><path style="opacity:1" fill="#3d8ce4" d="M 696.5,1041.5 C 707.965,1071.44 720.298,1101.11 733.5,1130.5C 650.676,1155.62 570.676,1188.12 493.5,1228C 469.069,1241.54 444.736,1255.04 420.5,1268.5C 418.937,1267.06 417.604,1265.39 416.5,1263.5C 416.262,1261.6 415.262,1260.26 413.5,1259.5C 402.211,1243.55 390.545,1227.88 378.5,1212.5C 377.026,1211.56 376.026,1210.23 375.5,1208.5C 375.859,1206.63 376.859,1205.13 378.5,1204C 475.845,1133.82 581.845,1079.66 696.5,1041.5 Z"/></g>
<g><path style="opacity:0.998" fill="#2ebdc5" d="M 733.5,1130.5 C 743.447,1150.39 753.947,1170.06 765,1189.5C 812.753,1267.74 860.253,1346.07 907.5,1424.5C 931.179,1504.73 948.013,1586.4 958,1669.5C 964.707,1737.36 937.54,1785.86 876.5,1815C 846.388,1827.42 815.054,1834.76 782.5,1837C 768.007,1837.81 753.674,1838.65 739.5,1839.5C 712.762,1795.71 687.262,1751.04 663,1705.5C 620.489,1623.15 578.489,1540.48 537,1457.5C 520.588,1425.68 503.922,1394.01 487,1362.5C 478.918,1348.67 470.584,1335 462,1321.5C 448.334,1303.67 434.5,1286 420.5,1268.5C 444.736,1255.04 469.069,1241.54 493.5,1228C 570.676,1188.12 650.676,1155.62 733.5,1130.5 Z"/></g>
<g><path style="opacity:0.995" fill="#fca341" d="M 2895.5,1390.5 C 2890.25,1381.4 2884.75,1372.4 2879,1363.5C 2865.89,1342.42 2861.73,1319.75 2866.5,1295.5C 2872.74,1279.07 2882.74,1265.24 2896.5,1254C 2929.03,1229.59 2965.36,1213.25 3005.5,1205C 3063.04,1191.96 3120.71,1191.29 3178.5,1203C 3185.36,1204.38 3192.03,1206.38 3198.5,1209C 3225.8,1223.15 3253.47,1236.48 3281.5,1249C 3340.17,1274.33 3398.83,1299.67 3457.5,1325C 3475.65,1333.24 3492.65,1343.24 3508.5,1355C 3521.71,1365.97 3526.54,1379.8 3523,1396.5C 3518.27,1406.29 3513.27,1415.96 3508,1425.5C 3487.83,1457.84 3467.17,1489.84 3446,1521.5C 3398.31,1587.21 3336.64,1635.21 3261,1665.5C 3180.29,1626.59 3104.12,1580.76 3032.5,1528C 2986.52,1493.69 2945.35,1454.19 2909,1409.5C 2904.49,1403.14 2899.99,1396.8 2895.5,1390.5 Z"/></g>
<g><path style="opacity:0.537" fill="#2fbac8" d="M 378.5,1212.5 C 390.545,1227.88 402.211,1243.55 413.5,1259.5C 404.151,1248.98 395.318,1237.98 387,1226.5C 383.893,1221.94 381.06,1217.28 378.5,1212.5 Z"/></g>
<g><path style="opacity:0.004" fill="#30b7ca" d="M 413.5,1259.5 C 415.262,1260.26 416.262,1261.6 416.5,1263.5C 414.738,1262.74 413.738,1261.4 413.5,1259.5 Z"/></g>
<g><path style="opacity:0.996" fill="#f3a370" d="M 2866.5,1295.5 C 2861.73,1319.75 2865.89,1342.42 2879,1363.5C 2884.75,1372.4 2890.25,1381.4 2895.5,1390.5C 2831.51,1393.06 2767.51,1395.56 2703.5,1398C 2590.54,1404.55 2479.54,1422.88 2370.5,1453C 2351.84,1458.17 2333.5,1464 2315.5,1470.5C 2313.35,1470.37 2311.35,1470.87 2309.5,1472C 2216.18,1543.35 2114.51,1600.85 2004.5,1644.5C 1959.12,1658.85 1918.12,1681.02 1881.5,1711C 1797.09,1787.36 1706.09,1854.69 1608.5,1913C 1568.97,1936.6 1528.64,1958.94 1487.5,1980C 1454.11,1996.35 1419.44,2009.35 1383.5,2019C 1316.91,2034.54 1250.91,2032.21 1185.5,2012C 1155.8,2004.15 1128.47,1991.48 1103.5,1974C 1096.81,1968.65 1091.64,1962.15 1088,1954.5C 1070.3,1941.13 1056.63,1924.46 1047,1904.5C 1043.38,1896.44 1039.88,1888.44 1036.5,1880.5C 1084.62,1789.57 1081.62,1700.41 1027.5,1613C 1028.06,1612.62 1028.39,1612.12 1028.5,1611.5C 1123.96,1578.14 1220.62,1549.14 1318.5,1524.5C 1326.1,1564.71 1331.1,1605.38 1333.5,1646.5C 1364.23,1629.63 1394.9,1612.46 1425.5,1595C 1643.67,1476.05 1873.67,1387.38 2115.5,1329C 2200.8,1309.78 2286.8,1294.45 2373.5,1283C 2390.13,1281.26 2406.8,1279.93 2423.5,1279C 2476.16,1277.45 2528.82,1277.11 2581.5,1278C 2662.21,1280.06 2742.87,1283.06 2823.5,1287C 2838.22,1288.12 2852.55,1290.95 2866.5,1295.5 Z"/></g>
<g><path style="opacity:0.996" fill="#28b2b3" d="M 907.5,1424.5 C 922.533,1447.4 937.033,1470.73 951,1494.5C 963.03,1512.68 975.196,1530.68 987.5,1548.5C 1000.57,1568.97 1013.41,1589.64 1026,1610.5C 1026.67,1611.25 1027.5,1611.59 1028.5,1611.5C 1028.39,1612.12 1028.06,1612.62 1027.5,1613C 1081.62,1700.41 1084.62,1789.57 1036.5,1880.5C 998.27,1899.64 959.27,1917.14 919.5,1933C 895.064,1942.78 869.73,1947.11 843.5,1946C 829.178,1944.5 816.512,1939.17 805.5,1930C 793.546,1918.39 782.713,1905.89 773,1892.5C 761.214,1875.22 750.047,1857.55 739.5,1839.5C 753.674,1838.65 768.007,1837.81 782.5,1837C 815.054,1834.76 846.388,1827.42 876.5,1815C 937.54,1785.86 964.707,1737.36 958,1669.5C 948.013,1586.4 931.179,1504.73 907.5,1424.5 Z"/></g>
<g><path style="opacity:1" fill="#3e8ce4" d="M 1302.5,1444.5 C 1309.48,1470.72 1314.81,1497.39 1318.5,1524.5C 1220.62,1549.14 1123.96,1578.14 1028.5,1611.5C 1027.5,1611.59 1026.67,1611.25 1026,1610.5C 1013.41,1589.64 1000.57,1568.97 987.5,1548.5C 1086.57,1496.25 1191.57,1461.59 1302.5,1444.5 Z"/></g>
<g><path style="opacity:0.992" fill="#f57460" d="M 2315.5,1470.5 C 2425.1,1480.73 2530.43,1507.57 2631.5,1551C 2860.99,1645.68 3052.32,1790.52 3205.5,1985.5C 3189.3,1988.62 3174.64,1995.12 3161.5,2005C 3150.07,2016.03 3142.41,2029.19 3138.5,2044.5C 3051.39,1985.43 2962.72,1928.6 2872.5,1874C 2787.35,1821.76 2698.69,1775.76 2606.5,1736C 2525.52,1705.01 2443.19,1678.01 2359.5,1655C 2298,1637.42 2235.33,1626.75 2171.5,1623C 2114.6,1620.74 2058.93,1627.9 2004.5,1644.5C 2114.51,1600.85 2216.18,1543.35 2309.5,1472C 2311.35,1470.87 2313.35,1470.37 2315.5,1470.5 Z"/></g>
<g><path style="opacity:0.995" fill="#fca241" d="M 3138.5,2044.5 C 3142.41,2029.19 3150.07,2016.03 3161.5,2005C 3174.64,1995.12 3189.3,1988.62 3205.5,1985.5C 3242.39,1980.47 3278.73,1983.3 3314.5,1994C 3372.62,2010.72 3424.62,2038.38 3470.5,2077C 3477.7,2083.86 3484.53,2091.03 3491,2098.5C 3507.5,2124.18 3524.5,2149.51 3542,2174.5C 3576.67,2221.17 3611.33,2267.83 3646,2314.5C 3659.77,2333.03 3671.77,2352.7 3682,2373.5C 3689.08,2388.26 3689.08,2402.92 3682,2417.5C 3670.13,2428.19 3656.96,2437.03 3642.5,2444C 3605.51,2463.98 3567.84,2482.65 3529.5,2500C 3463.32,2525.52 3394.99,2533.85 3324.5,2525C 3320.68,2524.77 3317.01,2523.93 3313.5,2522.5C 3256.18,2438.21 3209.02,2348.21 3172,2252.5C 3153.71,2203.34 3142.04,2152.68 3137,2100.5C 3135.98,2081.76 3136.48,2063.1 3138.5,2044.5 Z"/></g>
</svg>
