<?xml version="1.0" encoding="UTF-8"?>
<!DOCTYPE svg PUBLIC "-//W3C//DTD SVG 1.1//EN" "http://www.w3.org/Graphics/SVG/1.1/DTD/svg11.dtd">
<svg xmlns="http://www.w3.org/2000/svg" version="1.1" width="3663px" height="2349px" style="shape-rendering:geometricPrecision; text-rendering:geometricPrecision; image-rendering:optimizeQuality; fill-rule:evenodd; clip-rule:evenodd" xmlns:xlink="http://www.w3.org/1999/xlink">
<g><path style="opacity:0.995" fill="#48abe5" d="M 2723.5,458.5 C 2710.74,449.276 2697.41,440.776 2683.5,433C 2609.36,392.274 2530.7,363.941 2447.5,348C 2378.26,334.916 2308.6,328.083 2238.5,327.5C 2095.43,319.133 1954.76,333.966 1816.5,372C 1795.45,378.075 1774.45,384.241 1753.5,390.5C 1851.82,298.114 1964.49,227.614 2091.5,179C 2175.2,144.742 2261.86,121.409 2351.5,109C 2406.99,102.146 2462.33,103.146 2517.5,112C 2578.9,123.373 2633.56,148.706 2681.5,188C 2708.98,208.871 2731.48,234.038 2749,263.5C 2771.01,304.371 2773.34,346.371 2756,389.5C 2745.12,412.591 2734.29,435.591 2723.5,458.5 Z"/></g>
<g><path style="opacity:0.999" fill="#81caef" d="M 2238.5,327.5 C 2408.56,422.374 2548.72,550.374 2659,711.5C 2713.74,787.951 2758.41,870.284 2793,958.5C 2799.54,975.608 2805.37,992.942 2810.5,1010.5C 2809.18,1012.69 2807.18,1014.19 2804.5,1015C 2341.02,1223.24 1877.69,1431.74 1414.5,1640.5C 1356.27,1448.45 1345.77,1253.78 1383,1056.5C 1395.15,997.555 1411.65,939.888 1432.5,883.5C 1441.82,859.731 1451.65,836.064 1462,812.5C 1462.98,810.26 1463.48,807.927 1463.5,805.5C 1510.64,702.645 1568.47,606.645 1637,517.5C 1672.44,472.22 1711.27,429.886 1753.5,390.5C 1774.45,384.241 1795.45,378.075 1816.5,372C 1954.76,333.966 2095.43,319.133 2238.5,327.5 Z"/></g>
<g><path style="opacity:0.998" fill="#359adf" d="M 2238.5,327.5 C 2308.6,328.083 2378.26,334.916 2447.5,348C 2530.7,363.941 2609.36,392.274 2683.5,433C 2697.41,440.776 2710.74,449.276 2723.5,458.5C 2717.9,478.46 2724.56,492.627 2743.5,501C 2758.43,506.244 2773.77,508.078 2789.5,506.5C 2875.18,580.788 2940.68,670.121 2986,774.5C 3026.27,869.238 3053.94,967.572 3069,1069.5C 3088.45,1200.79 3097.62,1332.79 3096.5,1465.5C 3094.88,1465.36 3093.71,1466.03 3093,1467.5C 3079.71,1547.89 3066.21,1628.22 3052.5,1708.5C 3096.23,1763.65 3122.73,1826.32 3132,1896.5C 3138.26,1947.75 3131.26,1997.08 3111,2044.5C 3084.72,2098.11 3044.55,2137.61 2990.5,2163C 2898.54,2203.35 2804.21,2210.02 2707.5,2183C 2686.23,2176.3 2665.57,2168.13 2645.5,2158.5C 2538.43,2220.86 2425.1,2268.69 2305.5,2302C 2266.61,2312.61 2227.27,2321.11 2187.5,2327.5C 2293.43,2254.81 2390.59,2171.14 2479,2076.5C 2566.88,1980.61 2641.54,1875.28 2703,1760.5C 2738.52,1697.46 2769.19,1632.13 2795,1564.5C 2862.07,1381.42 2867.24,1196.75 2810.5,1010.5C 2805.37,992.942 2799.54,975.608 2793,958.5C 2758.41,870.284 2713.74,787.951 2659,711.5C 2548.72,550.374 2408.56,422.374 2238.5,327.5 Z"/></g>
<g><path style="opacity:0.997" fill="#47abe5" d="M 3662.5,1139.5 C 3662.5,1140.17 3662.5,1140.83 3662.5,1141.5C 3521.55,1331.03 3332.89,1439.03 3096.5,1465.5C 3097.62,1332.79 3088.45,1200.79 3069,1069.5C 3053.94,967.572 3026.27,869.238 2986,774.5C 2940.68,670.121 2875.18,580.788 2789.5,506.5C 2835.03,502.164 2869.53,480.497 2893,441.5C 2919.75,413.529 2951.92,394.362 2989.5,384C 3023.54,374.383 3058.2,368.55 3093.5,366.5C 3112.38,457.45 3155.05,534.95 3221.5,599C 3301.45,667.873 3394.45,698.873 3500.5,692C 3465.03,728.083 3440.2,770.583 3426,819.5C 3408.89,891.285 3421.56,957.285 3464,1017.5C 3514.27,1083.42 3580.44,1124.08 3662.5,1139.5 Z"/></g>
<g><path style="opacity:0.965" fill="#31507d" d="M 1463.5,805.5 C 1463.48,807.927 1462.98,810.26 1462,812.5C 1451.65,836.064 1441.82,859.731 1432.5,883.5C 1350.26,757.42 1241.59,661.253 1106.5,595C 1058.99,570.909 1010.99,547.909 962.5,526C 896.529,499.505 828.529,479.839 758.5,467C 696.325,454.461 633.991,453.461 571.5,464C 469.988,484.954 386.822,535.454 322,615.5C 285.094,664.332 260.927,718.998 249.5,779.5C 248.715,781.374 248.048,783.374 247.5,785.5C 246.85,785.804 246.183,786.137 245.5,786.5C 238.245,784.735 230.912,783.402 223.5,782.5C 223.5,781.5 223.5,780.5 223.5,779.5C 223.5,778.167 223.5,776.833 223.5,775.5C 284.48,541.405 436.146,427.572 678.5,434C 761.779,438.435 843.113,453.435 922.5,479C 1041.61,516.456 1153.94,568.123 1259.5,634C 1333.86,683.165 1401.86,740.331 1463.5,805.5 Z"/></g>
<g><path style="opacity:1" fill="#f0f3f7" d="M 1846.5,540.5 C 1847.55,540.351 1848.55,540.517 1849.5,541C 1823.67,557.483 1800.17,576.983 1779,599.5C 1788.08,578.741 1802.58,562.574 1822.5,551C 1830.39,546.99 1838.39,543.49 1846.5,540.5 Z"/></g>
<g><path style="opacity:1" fill="#f4f4f7" d="M 1734.5,644.5 C 1714.55,676.094 1694.38,708.094 1674,740.5C 1613.04,843.086 1561.71,950.419 1520,1062.5C 1524.29,911.456 1581.12,784.289 1690.5,681C 1704.77,668.215 1719.44,656.048 1734.5,644.5 Z"/></g>
<g><path style="opacity:0.35" fill="#fefefe" d="M 223.5,775.5 C 223.5,776.833 223.5,778.167 223.5,779.5C 221.74,783.547 220.74,787.88 220.5,792.5C 218.754,796.889 217.754,801.556 217.5,806.5C 216.215,809.589 215.549,812.922 215.5,816.5C 213.872,822.268 212.872,828.268 212.5,834.5C 210.771,840.926 209.771,847.593 209.5,854.5C 208.116,859.944 207.45,865.611 207.5,871.5C 206.125,878.289 205.458,885.289 205.5,892.5C 204.51,898.31 204.177,904.31 204.5,910.5C 216.804,908.447 228.804,909.447 240.5,913.5C 241.797,911.027 241.797,908.693 240.5,906.5C 240.653,900.131 240.32,893.797 239.5,887.5C 239.5,880.5 239.5,873.5 239.5,866.5C 239.482,858.149 239.815,849.816 240.5,841.5C 240.969,835.138 241.636,828.805 242.5,822.5C 242.833,818.5 243.167,814.5 243.5,810.5C 244.383,805.868 245.05,801.202 245.5,796.5C 246.422,792.888 247.089,789.221 247.5,785.5C 248.048,783.374 248.715,781.374 249.5,779.5C 330.39,801.557 381.224,853.224 402,934.5C 416.606,1019.72 390.106,1088.88 322.5,1142C 264.709,1181.59 202.376,1190.59 135.5,1169C 64.4235,1141.25 20.5902,1090.08 4,1015.5C -7.99527,935.793 16.5047,869.96 77.5,818C 120.583,785.144 169.249,770.978 223.5,775.5 Z"/></g>
<g><path style="opacity:0.999" fill="#405d86" d="M 223.5,779.5 C 223.5,780.5 223.5,781.5 223.5,782.5C 230.912,783.402 238.245,784.735 245.5,786.5C 246.183,786.137 246.85,785.804 247.5,785.5C 247.089,789.221 246.422,792.888 245.5,796.5C 244.778,796.918 244.278,797.584 244,798.5C 237.315,796.597 230.482,795.263 223.5,794.5C 221.97,794.36 220.97,793.693 220.5,792.5C 220.74,787.88 221.74,783.547 223.5,779.5 Z"/></g>
<g><path style="opacity:1" fill="#4d688e" d="M 220.5,792.5 C 220.97,793.693 221.97,794.36 223.5,794.5C 230.482,795.263 237.315,796.597 244,798.5C 244.278,797.584 244.778,796.918 245.5,796.5C 245.05,801.202 244.383,805.868 243.5,810.5C 234.796,809.16 226.129,807.827 217.5,806.5C 217.754,801.556 218.754,796.889 220.5,792.5 Z"/></g>
<g><path style="opacity:0.999" fill="#5a7397" d="M 217.5,806.5 C 226.129,807.827 234.796,809.16 243.5,810.5C 243.167,814.5 242.833,818.5 242.5,822.5C 241.735,822.923 240.902,823.257 240,823.5C 231.926,821.571 223.76,820.238 215.5,819.5C 215.5,818.5 215.5,817.5 215.5,816.5C 215.549,812.922 216.215,809.589 217.5,806.5 Z"/></g>
<g><path style="opacity:1" fill="#6d83a3" d="M 215.5,816.5 C 215.5,817.5 215.5,818.5 215.5,819.5C 223.76,820.238 231.926,821.571 240,823.5C 240.902,823.257 241.735,822.923 242.5,822.5C 241.636,828.805 240.969,835.138 240.5,841.5C 239.839,842.718 239.172,844.051 238.5,845.5C 230.037,842.867 221.37,841.534 212.5,841.5C 212.5,839.167 212.5,836.833 212.5,834.5C 212.872,828.268 213.872,822.268 215.5,816.5 Z"/></g>
<g><path style="opacity:1" fill="#8295b0" d="M 212.5,834.5 C 212.5,836.833 212.5,839.167 212.5,841.5C 221.37,841.534 230.037,842.867 238.5,845.5C 239.172,844.051 239.839,842.718 240.5,841.5C 239.815,849.816 239.482,858.149 239.5,866.5C 238.849,867.091 238.182,867.757 237.5,868.5C 233.83,867.594 230.496,866.094 227.5,864C 221.552,862.745 215.552,861.912 209.5,861.5C 209.5,859.167 209.5,856.833 209.5,854.5C 209.771,847.593 210.771,840.926 212.5,834.5 Z"/></g>
<g><path style="opacity:0.999" fill="#95a5bc" d="M 209.5,854.5 C 209.5,856.833 209.5,859.167 209.5,861.5C 215.552,861.912 221.552,862.745 227.5,864C 230.496,866.094 233.83,867.594 237.5,868.5C 238.182,867.757 238.849,867.091 239.5,866.5C 239.5,873.5 239.5,880.5 239.5,887.5C 229.253,883.383 218.587,881.05 207.5,880.5C 207.5,877.5 207.5,874.5 207.5,871.5C 207.45,865.611 208.116,859.944 209.5,854.5 Z"/></g>
<g><path style="opacity:1" fill="#aab7c9" d="M 207.5,871.5 C 207.5,874.5 207.5,877.5 207.5,880.5C 218.587,881.05 229.253,883.383 239.5,887.5C 240.32,893.797 240.653,900.131 240.5,906.5C 240.762,907.978 240.429,909.311 239.5,910.5C 228.907,904.685 217.574,901.685 205.5,901.5C 205.5,898.5 205.5,895.5 205.5,892.5C 205.458,885.289 206.125,878.289 207.5,871.5 Z"/></g>
<g><path style="opacity:1" fill="#b8c3d2" d="M 205.5,892.5 C 205.5,895.5 205.5,898.5 205.5,901.5C 217.574,901.685 228.907,904.685 239.5,910.5C 240.429,909.311 240.762,907.978 240.5,906.5C 241.797,908.693 241.797,911.027 240.5,913.5C 228.804,909.447 216.804,908.447 204.5,910.5C 204.177,904.31 204.51,898.31 205.5,892.5 Z"/></g>
<g><path style="opacity:0.999" fill="#48ace7" d="M 2810.5,1010.5 C 2867.24,1196.75 2862.07,1381.42 2795,1564.5C 2769.19,1632.13 2738.52,1697.46 2703,1760.5C 2641.54,1875.28 2566.88,1980.61 2479,2076.5C 2390.59,2171.14 2293.43,2254.81 2187.5,2327.5C 2015.15,2357.94 1844.48,2349.77 1675.5,2303C 1545.31,2269.57 1427.31,2212.23 1321.5,2131C 1227.06,2054.92 1150.56,1964.09 1092,1858.5C 1060.34,1798.36 1037.51,1735.03 1023.5,1668.5C 1129.83,1668.5 1236.17,1668.5 1342.5,1668.5C 1369.5,1668.67 1396.5,1668.5 1423.5,1668C 1420.12,1658.96 1417.12,1649.8 1414.5,1640.5C 1877.69,1431.74 2341.02,1223.24 2804.5,1015C 2807.18,1014.19 2809.18,1012.69 2810.5,1010.5 Z"/></g>
<g><path style="opacity:1" fill="#d5eefc" d="M 1548.5,1225.5 C 1562.03,1268.53 1591.03,1294.03 1635.5,1302C 1685.18,1304.92 1720.68,1284.09 1742,1239.5C 1759.27,1186.59 1745.11,1144.42 1699.5,1113C 1670.86,1097.67 1641.19,1095.33 1610.5,1106C 1580.21,1119.11 1559.88,1141.28 1549.5,1172.5C 1559.79,1125.74 1586.46,1091.91 1629.5,1071C 1678.79,1050.87 1725.79,1055.2 1770.5,1084C 1818.69,1121.19 1837.85,1170.02 1828,1230.5C 1810.2,1295.96 1767.7,1333.46 1700.5,1343C 1630.99,1344.85 1582.49,1314.01 1555,1250.5C 1552.11,1242.33 1549.94,1234 1548.5,1225.5 Z"/></g>
<g><path style="opacity:1" fill="#4c5e64" d="M 1548.5,1225.5 C 1545.56,1207.76 1545.89,1190.09 1549.5,1172.5C 1559.88,1141.28 1580.21,1119.11 1610.5,1106C 1641.19,1095.33 1670.86,1097.67 1699.5,1113C 1745.11,1144.42 1759.27,1186.59 1742,1239.5C 1720.68,1284.09 1685.18,1304.92 1635.5,1302C 1591.03,1294.03 1562.03,1268.53 1548.5,1225.5 Z"/></g>
<g><path style="opacity:0.984" fill="#d1eefe" d="M 1342.5,1668.5 C 1236.17,1668.5 1129.83,1668.5 1023.5,1668.5C 996.269,1529.6 1007.6,1393.94 1057.5,1261.5C 1044.65,1358.72 1057.82,1452.39 1097,1542.5C 1118.05,1588.17 1145.38,1629.51 1179,1666.5C 1184.81,1599.75 1203.14,1536.75 1234,1477.5C 1253.23,1444.27 1275.57,1413.27 1301,1384.5C 1299.27,1413.12 1298.1,1441.79 1297.5,1470.5C 1295.68,1540.41 1310.68,1606.41 1342.5,1668.5 Z"/></g>
</svg>
