<?xml version="1.0" encoding="UTF-8"?>
<!DOCTYPE svg PUBLIC "-//W3C//DTD SVG 1.1//EN" "http://www.w3.org/Graphics/SVG/1.1/DTD/svg11.dtd">
<svg xmlns="http://www.w3.org/2000/svg" version="1.1" width="4096px" height="1052px" style="shape-rendering:geometricPrecision; text-rendering:geometricPrecision; image-rendering:optimizeQuality; fill-rule:evenodd; clip-rule:evenodd" xmlns:xlink="http://www.w3.org/1999/xlink">
<g><path style="opacity:0.962" fill="#5a3c64" d="M 1074.5,-0.5 C 1075.83,-0.5 1077.17,-0.5 1078.5,-0.5C 1084.35,8.20174 1087.02,17.7017 1086.5,28C 1085.17,28.6667 1083.83,28.6667 1082.5,28C 1075.97,19.0418 1067.97,17.3752 1058.5,23C 1052.5,27 1046.5,31 1040.5,35C 1022.99,41.0966 1006.99,38.4299 992.5,27C 1002.73,8.05233 1018.4,0.718997 1039.5,5C 1046.88,7.68014 1054.21,10.3468 1061.5,13C 1065.99,14.3782 1069.49,13.2115 1072,9.5C 1073.35,6.27993 1074.19,2.9466 1074.5,-0.5 Z"/></g>
<g><path style="opacity:0.953" fill="#593c64" d="M 3392.5,-0.5 C 3393.5,-0.5 3394.5,-0.5 3395.5,-0.5C 3398.96,4.74719 3401.62,10.4139 3403.5,16.5C 3403.29,17.086 3402.96,17.586 3402.5,18C 3399.38,17.2791 3396.38,15.9457 3393.5,14C 3391.83,13.3333 3390.17,13.3333 3388.5,14C 3383.55,17.2853 3378.88,20.952 3374.5,25C 3363.93,29.7182 3353.43,29.5515 3343,24.5C 3346.58,13.5055 3354.24,7.1722 3366,5.5C 3373.52,6.92691 3381.02,8.09358 3388.5,9C 3391.96,6.85045 3393.3,3.68378 3392.5,-0.5 Z"/></g>
<g><path style="opacity:0.948" fill="#5a3c64" d="M 899.5,65.5 C 904.937,69.5093 908.271,75.0093 909.5,82C 909.387,83.2798 908.72,84.1131 907.5,84.5C 903.956,81.5524 899.956,80.0524 895.5,80C 888.772,85.0589 881.772,89.7256 874.5,94C 866.669,95.0318 859.002,94.3651 851.5,92C 850.09,91.6322 849.09,90.7989 848.5,89.5C 857.006,72.719 870.006,67.8856 887.5,75C 895.426,76.9143 899.426,73.7477 899.5,65.5 Z"/></g>
<g><path style="opacity:0.941" fill="#5a3c65" d="M 1070.5,99.5 C 1075.26,103.35 1078.26,108.35 1079.5,114.5C 1077.93,115.631 1076.26,115.798 1074.5,115C 1072.66,113.581 1070.66,112.414 1068.5,111.5C 1062.24,116.587 1055.58,121.087 1048.5,125C 1043.5,125.667 1038.5,125.667 1033.5,125C 1030.38,124.415 1027.71,123.081 1025.5,121C 1029.42,111.292 1036.59,106.125 1047,105.5C 1053.49,106.734 1059.99,107.567 1066.5,108C 1067.67,107.5 1068.5,106.667 1069,105.5C 1069.32,103.414 1069.82,101.414 1070.5,99.5 Z"/></g>
<g><path style="opacity:0.967" fill="#5a3c65" d="M 3290.5,101.5 C 3298.41,109.411 3301.91,119.078 3301,130.5C 3300.44,131.022 3299.77,131.355 3299,131.5C 3294.84,128.682 3290.68,125.848 3286.5,123C 3283.83,122.333 3281.17,122.333 3278.5,123C 3270.52,127.634 3262.52,132.301 3254.5,137C 3244.32,141.281 3233.99,141.614 3223.5,138C 3217.22,135.527 3211.22,132.527 3205.5,129C 3211.27,119.9 3218.93,112.9 3228.5,108C 3234.35,105.882 3240.35,105.215 3246.5,106C 3257.4,109.036 3268.23,112.203 3279,115.5C 3281.98,115.919 3284.31,114.919 3286,112.5C 3287.36,108.696 3288.86,105.03 3290.5,101.5 Z"/></g>
<g><path style="opacity:0.969" fill="#5a3c65" d="M 1226.5,131.5 C 1228.39,131.297 1229.89,131.963 1231,133.5C 1236.13,142.553 1238.13,152.22 1237,162.5C 1236.59,162.957 1236.09,163.291 1235.5,163.5C 1232.35,160.85 1229.35,158.016 1226.5,155C 1221.69,152.107 1216.69,151.774 1211.5,154C 1204.17,158.333 1196.83,162.667 1189.5,167C 1170.57,172.85 1153.57,169.35 1138.5,156.5C 1145.72,146.434 1155.05,139.267 1166.5,135C 1172.5,133 1178.5,133 1184.5,135C 1194.95,138.972 1205.45,142.806 1216,146.5C 1218.32,146.066 1220.32,145.066 1222,143.5C 1224,139.67 1225.5,135.67 1226.5,131.5 Z"/></g>
<g><path style="opacity:0.955" fill="#5a3c65" d="M 3478.5,154.5 C 3479.82,154.33 3480.99,154.663 3482,155.5C 3485.66,161.153 3488.49,167.153 3490.5,173.5C 3490.55,175 3489.88,176 3488.5,176.5C 3485.04,174.867 3481.71,173.034 3478.5,171C 3477.17,170.333 3475.83,170.333 3474.5,171C 3467.93,174.902 3461.93,179.569 3456.5,185C 3443.76,191.029 3431.09,190.695 3418.5,184C 3428.7,163.101 3444.7,157.101 3466.5,166C 3475.42,167.579 3479.42,163.746 3478.5,154.5 Z"/></g>
<g><path style="opacity:0.968" fill="#5a3c65" d="M 796.5,167.5 C 800.813,170.774 803.647,175.108 805,180.5C 807.016,185.988 807.849,191.655 807.5,197.5C 806.127,197.657 804.793,197.49 803.5,197C 800.113,193.947 796.447,191.28 792.5,189C 789.833,188.333 787.167,188.333 784.5,189C 775.167,194.333 765.833,199.667 756.5,205C 747.079,207.161 737.745,206.828 728.5,204C 722.675,201.255 717.008,198.255 711.5,195C 716.467,189.031 721.801,183.365 727.5,178C 736.777,172.078 746.777,170.412 757.5,173C 766.882,176.072 776.215,179.238 785.5,182.5C 788.271,182.244 790.438,180.91 792,178.5C 793.41,174.764 794.91,171.098 796.5,167.5 Z"/></g>
<g><path style="opacity:0.957" fill="#5a3c65" d="M 984.5,220.5 C 985.552,220.351 986.552,220.517 987.5,221C 992.845,227.19 995.845,234.357 996.5,242.5C 991.707,241.188 987.207,239.188 983,236.5C 980.21,237.094 977.71,238.261 975.5,240C 961.193,256.722 944.193,260.055 924.5,250C 934.693,229.136 950.693,223.136 972.5,232C 981.428,233.576 985.428,229.742 984.5,220.5 Z"/></g>
<g><path style="opacity:0.983" fill="#7e5887" d="M 631.5,805.5 C 636.305,810.459 641.638,814.959 647.5,819C 658.103,823.3 668.103,828.634 677.5,835C 568.914,825.264 460.081,820.098 351,819.5C 266.287,818.351 182.12,824.518 98.5,838C 65.3717,843.926 32.3717,850.426 -0.5,857.5C -0.5,824.833 -0.5,792.167 -0.5,759.5C 5.50924,759.666 11.5092,759.499 17.5,759C 11.4248,755.924 5.42479,752.757 -0.5,749.5C -0.5,741.167 -0.5,732.833 -0.5,724.5C 2.0991,724.549 4.26577,725.549 6,727.5C 9.2789,721.899 9.2789,716.232 6,710.5C 4.322,708.334 2.15534,707.001 -0.5,706.5C -0.5,703.167 -0.5,699.833 -0.5,696.5C 2.56615,697.727 5.73281,698.727 9,699.5C 20.0111,694.516 26.1778,698.016 27.5,710C 26.7724,713.628 25.6057,717.128 24,720.5C 23.3333,722.5 23.3333,724.5 24,726.5C 34.5645,749.767 41.7312,748.767 45.5,723.5C 44.9849,719.758 44.1516,716.091 43,712.5C 33.6286,697.324 31.1286,681.158 35.5,664C 36.5,663.333 37.5,663.333 38.5,664C 40.3024,667.3 42.3024,670.467 44.5,673.5C 45.723,674.614 47.0563,674.781 48.5,674C 52.1902,666.097 55.1902,657.93 57.5,649.5C 60.9639,646.699 63.7972,647.366 66,651.5C 70.4502,660.318 69.1169,667.985 62,674.5C 58.7459,679.764 56.5792,685.431 55.5,691.5C 56.9507,697.11 60.6174,699.943 66.5,700C 67.0585,700.725 67.3918,701.558 67.5,702.5C 65.9272,705.301 64.0938,707.968 62,710.5C 56.233,719.586 56.0664,728.753 61.5,738C 63.7693,739.724 66.1026,739.724 68.5,738C 77.7525,733.013 82.5859,725.179 83,714.5C 88.3013,703.834 96.9679,697.834 109,696.5C 118.424,698.354 121.757,704.021 119,713.5C 118.214,718.634 115.381,721.134 110.5,721C 107.55,718.212 104.217,716.045 100.5,714.5C 93.6429,718.547 91.1429,724.547 93,732.5C 93.9492,735.2 95.7825,736.033 98.5,735C 104.141,730.225 109.641,730.392 115,735.5C 115.635,737.635 115.301,739.635 114,741.5C 111.01,744.491 107.51,746.657 103.5,748C 96.5629,749.173 89.5629,749.84 82.5,750C 78.6997,752.755 77.033,756.255 77.5,760.5C 148.272,763.757 218.938,768.757 289.5,775.5C 294.374,742.457 291.541,710.124 281,678.5C 273.401,658.704 266.401,638.704 260,618.5C 247.65,560.362 253.317,504.029 277,449.5C 287.161,430.508 297.828,411.841 309,393.5C 315.908,378.988 316.242,364.322 310,349.5C 302.155,334.468 292.822,320.468 282,307.5C 271.703,286.451 274.869,267.617 291.5,251C 294.333,248.834 297.5,247.334 301,246.5C 303.915,247.083 305.915,248.75 307,251.5C 309.907,267.513 312.907,283.513 316,299.5C 320.793,317.749 327.793,335.082 337,351.5C 343.37,381.279 338.703,409.279 323,435.5C 302.166,460.491 286.499,488.491 276,519.5C 271.811,534.571 270.478,549.904 272,565.5C 277.551,608.257 286.551,650.257 299,691.5C 305.232,719.874 307.398,748.541 305.5,777.5C 325.233,779.322 344.9,781.655 364.5,784.5C 364.316,775.377 363.149,766.377 361,757.5C 356.319,744.122 351.653,730.789 347,717.5C 338.401,678.026 344.068,640.692 364,605.5C 369.659,597.848 373.992,589.515 377,580.5C 377.849,574.661 377.183,568.995 375,563.5C 370.494,555.82 365.494,548.487 360,541.5C 352.782,527.587 355.282,515.753 367.5,506C 372.227,504.721 374.727,506.555 375,511.5C 376.695,530.585 382.029,548.585 391,565.5C 394.608,590.341 387.608,611.674 370,629.5C 361.902,642.464 356.568,656.464 354,671.5C 355.383,700.422 360.383,728.756 369,756.5C 371.107,766.416 372.607,776.416 373.5,786.5C 396.024,789.265 418.524,792.265 441,795.5C 441.833,795.167 442.667,794.833 443.5,794.5C 464.386,754.519 464.553,714.519 444,674.5C 436.402,664.899 428.069,655.899 419,647.5C 405.439,629.536 401.439,609.536 407,587.5C 409.261,578.05 411.928,568.716 415,559.5C 426.877,528.544 439.543,497.877 453,467.5C 458.072,444.729 455.739,422.729 446,401.5C 440.525,389.711 433.858,378.711 426,368.5C 421.823,360.395 423.323,359.228 430.5,365C 467.988,398.495 479.822,439.662 466,488.5C 462.823,498.703 458.49,508.37 453,517.5C 446.333,526.833 439.667,536.167 433,545.5C 425.14,561.774 420.64,578.94 419.5,597C 419.472,613.932 425.472,628.265 437.5,640C 449.317,649.485 460.484,659.652 471,670.5C 485.463,692.274 489.463,715.94 483,741.5C 478.241,760.612 471.407,778.945 462.5,796.5C 462.709,797.086 463.043,797.586 463.5,798C 492.48,801.054 521.48,803.554 550.5,805.5C 553.654,782.366 551.488,759.699 544,737.5C 517.946,681.562 515.613,624.562 537,566.5C 544.717,549.395 553.717,533.062 564,517.5C 571.536,504.497 572.202,491.163 566,477.5C 558.828,465.821 551.162,454.488 543,443.5C 536.194,425.252 540.694,410.418 556.5,399C 560.475,397.621 563.309,398.787 565,402.5C 567.331,423.825 572.331,444.492 580,464.5C 589.587,478.763 592.92,494.429 590,511.5C 586.298,532.237 577.298,550.237 563,565.5C 551.961,582.914 543.628,601.581 538,621.5C 536.057,633.826 536.057,646.159 538,658.5C 539.559,668.186 541.225,677.853 543,687.5C 549.158,712.466 555.158,737.466 561,762.5C 563.061,776.758 563.895,791.092 563.5,805.5C 586.179,806.168 608.846,806.168 631.5,805.5 Z"/></g>
<g><path style="opacity:0.993" fill="#7e5887" d="M 3282.5,568.5 C 3041.45,542.29 2799.78,534.123 2557.5,544C 2398.06,550.778 2239.72,567.778 2082.5,595C 1983.34,612.445 1886.01,636.945 1790.5,668.5C 1798.25,648.594 1809.09,630.594 1823,614.5C 1833.41,595.786 1837.41,575.786 1835,554.5C 1831.22,544.277 1826.89,534.277 1822,524.5C 1820.86,521.568 1820.02,518.568 1819.5,515.5C 1867.34,508.813 1915.34,503.147 1963.5,498.5C 1968.97,479.329 1964.3,463.162 1949.5,450C 1944.5,446.333 1939.5,442.667 1934.5,439C 1923.52,433.843 1912.85,428.176 1902.5,422C 1898.23,417.726 1894.73,412.893 1892,407.5C 1889.57,396.286 1893.9,389.619 1905,387.5C 1909.18,387.948 1913.01,389.281 1916.5,391.5C 1917.17,391.167 1917.83,390.833 1918.5,390.5C 1924.23,371.453 1917.23,361.286 1897.5,360C 1888.02,357.492 1880.52,352.325 1875,344.5C 1873.8,336.056 1876.97,329.889 1884.5,326C 1887.47,325.105 1890.13,325.605 1892.5,327.5C 1896.13,341.991 1905.46,349.324 1920.5,349.5C 1940.68,343.193 1950.18,350.527 1949,371.5C 1947.06,375.048 1945.39,378.714 1944,382.5C 1943.3,385.928 1943.63,389.262 1945,392.5C 1949.54,402.254 1956.37,409.921 1965.5,415.5C 1970.6,413.017 1974.1,409.017 1976,403.5C 1979.3,392.819 1979.3,382.153 1976,371.5C 1961.52,350.227 1956.52,326.894 1961,301.5C 1962.31,298.694 1964.47,297.86 1967.5,299C 1970.39,304.562 1974.06,309.562 1978.5,314C 1981.69,315.901 1984.19,315.067 1986,311.5C 1989.61,300.016 1993.61,288.682 1998,277.5C 2002.85,273.33 2007.19,273.997 2011,279.5C 2013.84,284.342 2015.67,289.508 2016.5,295C 2016.34,298.817 2015.18,302.317 2013,305.5C 2004.9,312.941 1999.23,321.941 1996,332.5C 1995.13,336.956 1995.47,341.289 1997,345.5C 2001.35,348.468 2006.18,350.302 2011.5,351C 2013.99,353.627 2014.15,356.46 2012,359.5C 1998.63,371.631 1994.97,386.298 2001,403.5C 2003.77,409.172 2008.27,411.006 2014.5,409C 2023.52,405.985 2030.02,400.151 2034,391.5C 2037.66,364.509 2052.99,349.842 2080,347.5C 2091.26,346.924 2096.76,352.257 2096.5,363.5C 2096.81,370.739 2094.48,376.905 2089.5,382C 2087.5,382.667 2085.5,382.667 2083.5,382C 2079,379.584 2074.67,376.917 2070.5,374C 2065.27,372.534 2061.1,374.034 2058,378.5C 2053.93,384.616 2052.6,391.283 2054,398.5C 2055.04,403.223 2057.88,405.056 2062.5,404C 2071.91,396.499 2081.08,396.666 2090,404.5C 2090.75,407.303 2090.42,409.97 2089,412.5C 2074.33,423.293 2057.83,427.46 2039.5,425C 2037.27,425.561 2035.27,426.561 2033.5,428C 2028.95,441.473 2020.29,451.139 2007.5,457C 2002.7,460.755 1999.54,465.588 1998,471.5C 1997.31,479.195 1997.48,486.861 1998.5,494.5C 2093.04,487.235 2187.71,482.401 2282.5,480C 2341.5,479.333 2400.5,479.333 2459.5,480C 2529.53,482.135 2599.53,484.801 2669.5,488C 2662.17,483.667 2654.83,479.333 2647.5,475C 2643.53,471.056 2640.86,466.39 2639.5,461C 2642.04,451.168 2647.54,449.001 2656,454.5C 2661.44,440.567 2656.61,433.067 2641.5,432C 2637.01,430.008 2633.17,427.175 2630,423.5C 2628.03,414.488 2631.53,409.988 2640.5,410C 2642.68,419.684 2648.68,424.851 2658.5,425.5C 2662.83,424.749 2667.16,424.583 2671.5,425C 2674.82,428.315 2676.82,432.315 2677.5,437C 2676.36,441.598 2674.69,445.931 2672.5,450C 2674.97,457.269 2678.97,463.602 2684.5,469C 2688.78,469.41 2691.45,467.41 2692.5,463C 2696.39,450.624 2694.56,439.124 2687,428.5C 2682.59,416.767 2681.59,404.767 2684,392.5C 2684.73,390.842 2685.89,390.342 2687.5,391C 2689.68,395.021 2692.34,398.688 2695.5,402C 2698.49,401.642 2700.33,399.808 2701,396.5C 2702.46,390.442 2704.13,384.442 2706,378.5C 2706.68,376.487 2708.01,375.154 2710,374.5C 2717.89,379.512 2720.23,386.512 2717,395.5C 2710.66,401.686 2706.82,409.186 2705.5,418C 2705.94,423.668 2709.11,426.501 2715,426.5C 2716.3,427.098 2717.13,428.098 2717.5,429.5C 2716.24,432.264 2714.41,434.597 2712,436.5C 2706.63,445.575 2706.13,454.908 2710.5,464.5C 2712.19,466.256 2714.19,466.756 2716.5,466C 2720.79,464.604 2724.29,462.104 2727,458.5C 2729.67,451.184 2732.33,443.85 2735,436.5C 2742.14,427.018 2751.64,423.185 2763.5,425C 2767.67,426.959 2769.67,430.292 2769.5,435C 2769.16,439.361 2767.83,443.361 2765.5,447C 2764.5,447.5 2763.5,448 2762.5,448.5C 2758.71,446.038 2754.71,444.038 2750.5,442.5C 2746.61,443.221 2744.11,445.555 2743,449.5C 2742.33,452.833 2742.33,456.167 2743,459.5C 2743.62,461.116 2744.62,462.449 2746,463.5C 2752.12,457.355 2758.45,457.022 2765,462.5C 2765.81,467.06 2763.97,470.226 2759.5,472C 2752.06,476.214 2744.23,477.38 2736,475.5C 2734.18,476.329 2732.35,477.163 2730.5,478C 2728.22,482.715 2725.56,487.215 2722.5,491.5C 2870.24,503.509 3017.24,521.676 3163.5,546C 3203.41,552.872 3243.08,560.372 3282.5,568.5 Z"/></g>
<g><path style="opacity:0.999" fill="#5a3c65" d="M 4095.5,735.5 C 4095.5,840.833 4095.5,946.167 4095.5,1051.5C 2730.17,1051.5 1364.83,1051.5 -0.5,1051.5C -0.5,986.833 -0.5,922.167 -0.5,857.5C 32.3717,850.426 65.3717,843.926 98.5,838C 182.12,824.518 266.287,818.351 351,819.5C 460.081,820.098 568.914,825.264 677.5,835C 668.103,828.634 658.103,823.3 647.5,819C 641.638,814.959 636.305,810.459 631.5,805.5C 629.889,801.942 628.555,798.276 627.5,794.5C 631.136,780.281 639.136,776.781 651.5,784C 654.74,784.442 656.573,782.942 657,779.5C 659.209,770.371 657.042,762.537 650.5,756C 641.966,754.399 633.633,752.066 625.5,749C 617.931,746.104 613.265,740.771 611.5,733C 612.393,724.769 616.893,719.602 625,717.5C 626.473,717.903 627.806,718.57 629,719.5C 632.833,734.169 642.333,741.836 657.5,742.5C 662.367,742.075 667.2,741.408 672,740.5C 678.401,740.532 682.734,743.532 685,749.5C 686.492,754.411 686.826,759.411 686,764.5C 684.059,768.048 682.393,771.714 681,775.5C 680.348,778.594 680.682,781.594 682,784.5C 685.384,791.213 689.55,797.38 694.5,803C 699.589,803.826 704.589,803.492 709.5,802C 715.133,792.215 716.966,781.715 715,770.5C 711.802,761.77 707.802,753.437 703,745.5C 696,727.798 694.833,709.798 699.5,691.5C 700.723,690.386 702.056,690.219 703.5,691C 707.167,696 710.833,701 714.5,706C 716.833,708 719.167,708 721.5,706C 722.794,703.913 723.961,701.746 725,699.5C 727.667,690.833 730.333,682.167 733,673.5C 738.016,664.902 743.349,664.902 749,673.5C 756.328,686.523 753.995,697.523 742,706.5C 736.638,713.864 733.138,722.031 731.5,731C 731.704,734.832 733.371,737.832 736.5,740C 740.779,741.653 745.112,743.153 749.5,744.5C 750.641,746.421 750.808,748.421 750,750.5C 734.755,764.471 731.422,780.804 740,799.5C 753.117,802.613 763.117,798.28 770,786.5C 772.377,779.619 774.377,772.619 776,765.5C 780.167,756 787,749.167 796.5,745C 803.148,742.463 809.981,740.63 817,739.5C 828.152,739.817 833.652,745.484 833.5,756.5C 832.353,776.539 824.019,780.039 808.5,767C 798.719,766.091 792.886,770.591 791,780.5C 789.982,785.862 790.815,790.862 793.5,795.5C 794.667,795.833 795.833,796.167 797,796.5C 802.299,794.107 807.799,792.107 813.5,790.5C 816.98,791.105 820.314,792.105 823.5,793.5C 828.992,798.939 828.325,803.772 821.5,808C 807.126,815.533 791.792,818.533 775.5,817C 774.167,817.667 772.833,818.333 771.5,819C 768.002,824.815 764.502,830.648 761,836.5C 758.131,839.704 754.965,842.537 751.5,845C 784.77,850.015 818.104,854.515 851.5,858.5C 847.171,835.736 847.504,813.069 852.5,790.5C 853.877,781.533 856.377,772.866 860,764.5C 868.606,750.231 877.606,736.231 887,722.5C 914.681,664.358 918.681,604.691 899,543.5C 889.326,520.48 877.326,498.813 863,478.5C 862.217,476.681 862.717,475.348 864.5,474.5C 867.088,475.194 869.421,476.36 871.5,478C 903.501,505.833 921.334,540.999 925,583.5C 926.789,620.244 923.789,656.577 916,692.5C 913.397,700.975 910.397,709.308 907,717.5C 898.667,731.5 890.333,745.5 882,759.5C 878.254,768.57 875.421,777.904 873.5,787.5C 871.599,791.837 870.432,796.503 870,801.5C 867.752,821.574 868.252,841.574 871.5,861.5C 912.435,864.67 953.435,866.336 994.5,866.5C 992.628,858.089 989.128,850.423 984,843.5C 976.364,834.863 968.364,826.53 960,818.5C 950.529,805.265 946.029,790.598 946.5,774.5C 948.918,759.161 952.751,744.161 958,729.5C 969.22,700.508 981.22,671.842 994,643.5C 999.921,623.669 999.254,604.003 992,584.5C 985.387,567.933 976.72,552.6 966,538.5C 965.219,537.056 965.386,535.723 966.5,534.5C 972.999,537.507 978.499,541.841 983,547.5C 1013.36,582.637 1021.03,622.303 1006,666.5C 1002.88,674.739 999.214,682.739 995,690.5C 973.934,713.312 962.767,740.312 961.5,771.5C 961.284,784.016 964.784,795.35 972,805.5C 983.288,816.633 994.954,827.3 1007,837.5C 1014.02,845.531 1019.52,854.531 1023.5,864.5C 1239.9,866.656 1446.23,822.489 1642.5,732C 1656.25,725.256 1669.91,718.423 1683.5,711.5C 1670.2,682.968 1662.87,652.968 1661.5,621.5C 1662.23,592.928 1667.56,565.261 1677.5,538.5C 1680.71,531.072 1684.21,523.738 1688,516.5C 1694.17,507.5 1699.84,498.166 1705,488.5C 1710.99,475.382 1710.65,462.382 1704,449.5C 1698.44,439.946 1692.11,430.946 1685,422.5C 1675.24,403.722 1678.41,387.556 1694.5,374C 1698.66,371.428 1701.83,372.262 1704,376.5C 1706.22,403.042 1713.55,428.042 1726,451.5C 1733.59,481.469 1727.76,508.469 1708.5,532.5C 1704.48,536.356 1700.98,540.689 1698,545.5C 1687.34,562.151 1680.01,580.151 1676,599.5C 1676.1,636.42 1681.93,672.42 1693.5,707.5C 1719.81,696.017 1746.14,684.85 1772.5,674C 1778.2,643.451 1790.03,615.617 1808,590.5C 1817.96,575.03 1818.96,559.03 1811,542.5C 1805.79,533.386 1799.62,525.053 1792.5,517.5C 1781.79,498.879 1784.46,482.379 1800.5,468C 1805.6,465.069 1809.1,466.235 1811,471.5C 1812.87,486.379 1815.7,501.046 1819.5,515.5C 1820.02,518.568 1820.86,521.568 1822,524.5C 1826.89,534.277 1831.22,544.277 1835,554.5C 1837.41,575.786 1833.41,595.786 1823,614.5C 1809.09,630.594 1798.25,648.594 1790.5,668.5C 1886.01,636.945 1983.34,612.445 2082.5,595C 2239.72,567.778 2398.06,550.778 2557.5,544C 2799.78,534.123 3041.45,542.29 3282.5,568.5C 3395.27,581.015 3507.44,597.682 3619,618.5C 3619.83,618.167 3620.67,617.833 3621.5,617.5C 3614.88,608.049 3606.55,600.549 3596.5,595C 3588.08,590.124 3579.41,585.791 3570.5,582C 3561.17,576.185 3555.17,568.018 3552.5,557.5C 3556.14,543.845 3564.14,540.345 3576.5,547C 3579.74,547.442 3581.57,545.942 3582,542.5C 3583.88,533.153 3581.38,525.319 3574.5,519C 3562.56,517.574 3551.56,513.574 3541.5,507C 3534.1,497.928 3535.1,489.928 3544.5,483C 3547.03,481.578 3549.7,481.245 3552.5,482C 3560.86,503.178 3575.86,510.345 3597.5,503.5C 3606.94,505.673 3611.6,511.673 3611.5,521.5C 3611.08,527.334 3609.25,532.668 3606,537.5C 3605.26,541.261 3605.6,544.928 3607,548.5C 3611.22,558.551 3618.05,566.218 3627.5,571.5C 3631.86,569.305 3635.03,565.972 3637,561.5C 3640.7,551.36 3641.36,541.026 3639,530.5C 3635.94,524.04 3632.6,517.707 3629,511.5C 3621,492.941 3619.5,473.941 3624.5,454.5C 3625.72,453.386 3627.06,453.219 3628.5,454C 3631.77,459.87 3635.77,465.203 3640.5,470C 3642.17,470.667 3643.83,470.667 3645.5,470C 3647.38,467.749 3648.88,465.249 3650,462.5C 3652.36,453.729 3655.03,445.062 3658,436.5C 3662.48,428.922 3667.48,428.589 3673,435.5C 3677.17,442.294 3678.5,449.627 3677,457.5C 3673.38,462.789 3669.38,467.789 3665,472.5C 3660.9,479.202 3658.06,486.368 3656.5,494C 3656.73,499.472 3659.4,503.138 3664.5,505C 3667.53,505.539 3670.53,506.206 3673.5,507C 3675.4,508.808 3675.9,510.975 3675,513.5C 3660.8,526.112 3656.8,541.445 3663,559.5C 3665.35,564.426 3669.19,566.26 3674.5,565C 3690.5,559.656 3699,548.489 3700,531.5C 3704.14,519.359 3712.31,511.193 3724.5,507C 3733.38,503.009 3742.38,502.342 3751.5,505C 3756.67,508.156 3759.01,512.823 3758.5,519C 3758.75,525.792 3756.75,531.792 3752.5,537C 3750.64,538.301 3748.64,538.635 3746.5,538C 3741.85,535.366 3737.19,532.699 3732.5,530C 3723.68,529.463 3718.18,533.63 3716,542.5C 3715.33,546.5 3715.33,550.5 3716,554.5C 3716.91,558.77 3719.41,560.604 3723.5,560C 3726.5,558.333 3729.5,556.667 3732.5,555C 3740.18,552.999 3746.68,554.833 3752,560.5C 3752.76,565.482 3750.93,569.315 3746.5,572C 3734.56,579.134 3721.72,581.634 3708,579.5C 3702.32,579.247 3697.65,581.247 3694,585.5C 3692.19,590.446 3689.86,595.112 3687,599.5C 3679,606.167 3671,612.833 3663,619.5C 3661.59,621.65 3660.76,623.984 3660.5,626.5C 3732.23,640.379 3803.56,656.046 3874.5,673.5C 3880.22,642.805 3875.05,614.138 3859,587.5C 3854,581.167 3848.33,575.5 3842,570.5C 3826.32,555.121 3819.98,536.455 3823,514.5C 3826.5,495.661 3831.83,477.328 3839,459.5C 3848.81,435.752 3858.81,412.085 3869,388.5C 3874.66,371.316 3874.99,353.983 3870,336.5C 3864.14,317.437 3855.14,300.104 3843,284.5C 3842.17,282.833 3841.33,281.167 3840.5,279.5C 3841,279.167 3841.5,278.833 3842,278.5C 3847.21,281.043 3851.88,284.376 3856,288.5C 3891.19,327.637 3898.52,371.637 3878,420.5C 3876,424.5 3874,428.5 3872,432.5C 3865.67,441.167 3859.33,449.833 3853,458.5C 3839.12,481.911 3834.78,506.911 3840,533.5C 3842.22,539.61 3845.22,545.277 3849,550.5C 3861.97,561.799 3874.63,573.465 3887,585.5C 3898.09,599.663 3903.59,615.83 3903.5,634C 3902.8,649.494 3899.8,664.494 3894.5,679C 3914.43,684.482 3934.43,689.649 3954.5,694.5C 3960.23,672.37 3969.73,652.037 3983,633.5C 3997.79,610.79 3996.79,588.79 3980,567.5C 3970.68,559.027 3965.18,548.527 3963.5,536C 3963.97,527.29 3966.8,519.457 3972,512.5C 3975.61,507.441 3980.45,505.274 3986.5,506C 3988.6,508.042 3989.77,510.542 3990,513.5C 3991.38,527.75 3994.05,541.75 3998,555.5C 4002.73,567.293 4007.73,578.959 4013,590.5C 4016.71,613.265 4012.71,634.599 4001,654.5C 3989.04,668.252 3979.2,683.418 3971.5,700C 4013.01,711.338 4054.34,723.171 4095.5,735.5 Z"/></g>
<g><path style="opacity:0.999" fill="#7d5786" d="M 1792.5,517.5 C 1799.62,525.053 1805.79,533.386 1811,542.5C 1818.96,559.03 1817.96,575.03 1808,590.5C 1790.03,615.617 1778.2,643.451 1772.5,674C 1746.14,684.85 1719.81,696.017 1693.5,707.5C 1681.93,672.42 1676.1,636.42 1676,599.5C 1680.01,580.151 1687.34,562.151 1698,545.5C 1700.98,540.689 1704.48,536.356 1708.5,532.5C 1736.9,528.213 1764.9,523.213 1792.5,517.5 Z"/></g>
<g><path style="opacity:0.998" fill="#7d5887" d="M 1677.5,538.5 C 1667.56,565.261 1662.23,592.928 1661.5,621.5C 1662.87,652.968 1670.2,682.968 1683.5,711.5C 1669.91,718.423 1656.25,725.256 1642.5,732C 1446.23,822.489 1239.9,866.656 1023.5,864.5C 1019.52,854.531 1014.02,845.531 1007,837.5C 994.954,827.3 983.288,816.633 972,805.5C 964.784,795.35 961.284,784.016 961.5,771.5C 1003.06,762.194 1044.06,750.86 1084.5,737.5C 1077.33,732.171 1071.83,725.504 1068,717.5C 1066.08,708.842 1069.24,703.009 1077.5,700C 1080.5,699.333 1083.5,699.333 1086.5,700C 1088.57,701.874 1090.9,702.874 1093.5,703C 1098.47,694.902 1098.3,686.736 1093,678.5C 1091.83,677.333 1090.67,676.167 1089.5,675C 1082.19,673.001 1074.85,671.001 1067.5,669C 1060.45,666.27 1054.95,661.77 1051,655.5C 1050.07,647.527 1053.24,641.693 1060.5,638C 1062.83,637.333 1065.17,637.333 1067.5,638C 1075.23,658.699 1089.9,665.866 1111.5,659.5C 1119.25,660.406 1124.08,664.739 1126,672.5C 1126.67,675.833 1126.67,679.167 1126,682.5C 1123.18,686.966 1121.35,691.799 1120.5,697C 1122.39,706.954 1127.22,715.12 1135,721.5C 1140.44,719.195 1145.94,717.028 1151.5,715C 1156.5,704.276 1156.67,693.443 1152,682.5C 1146.23,672.292 1141.56,661.625 1138,650.5C 1135.25,638.554 1134.91,626.554 1137,614.5C 1137.58,610.574 1139.75,609.074 1143.5,610C 1147.17,615 1150.83,620 1154.5,625C 1156.5,627 1158.5,627 1160.5,625C 1162.38,622.749 1163.88,620.249 1165,617.5C 1167.36,608.741 1170.02,600.074 1173,591.5C 1177.71,583.727 1182.71,583.727 1188,591.5C 1193.03,599.535 1193.7,607.869 1190,616.5C 1177.11,626.936 1171.44,640.27 1173,656.5C 1174.21,658.049 1175.71,659.215 1177.5,660C 1181.25,660.749 1184.92,661.749 1188.5,663C 1189.8,663.804 1190.47,664.971 1190.5,666.5C 1185.45,672.733 1180.95,679.399 1177,686.5C 1174.9,692.656 1174.07,698.99 1174.5,705.5C 1178.55,704.65 1182.55,703.484 1186.5,702C 1194.94,697.782 1203.6,694.115 1212.5,691C 1222.04,667.887 1239.37,657.554 1264.5,660C 1267.1,660.883 1269.27,662.383 1271,664.5C 1334.2,633.318 1399.7,607.818 1467.5,588C 1536.7,568.034 1606.7,551.534 1677.5,538.5 Z"/></g>
<g><path style="opacity:0.998" fill="#7d5786" d="M 946.5,774.5 C 946.029,790.598 950.529,805.265 960,818.5C 968.364,826.53 976.364,834.863 984,843.5C 989.128,850.423 992.628,858.089 994.5,866.5C 953.435,866.336 912.435,864.67 871.5,861.5C 868.252,841.574 867.752,821.574 870,801.5C 870.432,796.503 871.599,791.837 873.5,787.5C 897.816,783.28 922.15,778.947 946.5,774.5 Z"/></g>
<g><path style="opacity:0.998" fill="#7d5786" d="M 852.5,790.5 C 847.504,813.069 847.171,835.736 851.5,858.5C 818.104,854.515 784.77,850.015 751.5,845C 754.965,842.537 758.131,839.704 761,836.5C 764.502,830.648 768.002,824.815 771.5,819C 772.833,818.333 774.167,817.667 775.5,817C 791.792,818.533 807.126,815.533 821.5,808C 828.325,803.772 828.992,798.939 823.5,793.5C 833.14,792.253 842.807,791.253 852.5,790.5 Z"/></g>
</svg>
