<?xml version="1.0" encoding="UTF-8"?>
<!DOCTYPE svg PUBLIC "-//W3C//DTD SVG 1.1//EN" "http://www.w3.org/Graphics/SVG/1.1/DTD/svg11.dtd">
<svg xmlns="http://www.w3.org/2000/svg" version="1.1" width="4096px" height="3141px" style="shape-rendering:geometricPrecision; text-rendering:geometricPrecision; image-rendering:optimizeQuality; fill-rule:evenodd; clip-rule:evenodd" xmlns:xlink="http://www.w3.org/1999/xlink">
<g><path style="opacity:0.995" fill="#5ec4e6" d="M 1656.5,91.5 C 1657.19,111.105 1652.53,129.438 1642.5,146.5C 1641.41,146.38 1640.75,145.713 1640.5,144.5C 1646.3,100.939 1630.3,68.1053 1592.5,46C 1556.68,30.3797 1523.35,34.3797 1492.5,58C 1488.63,61.5338 1485.13,65.3672 1482,69.5C 1481.52,68.552 1481.35,67.552 1481.5,66.5C 1484.53,58.7791 1488.36,51.4458 1493,44.5C 1498.36,37.9695 1504.2,31.9695 1510.5,26.5C 1539.4,6.08441 1570.4,2.58441 1603.5,16C 1634.56,31.5736 1652.23,56.7402 1656.5,91.5 Z"/></g>
<g><path style="opacity:0.997" fill="#f3966d" d="M 1510.5,26.5 C 1504.2,31.9695 1498.36,37.9695 1493,44.5C 1488.36,51.4458 1484.53,58.7791 1481.5,66.5C 1467.89,106.815 1476.89,141.315 1508.5,170C 1535.61,190.165 1565.28,194.832 1597.5,184C 1616.47,176.193 1631.47,163.693 1642.5,146.5C 1652.53,129.438 1657.19,111.105 1656.5,91.5C 1659.06,138.577 1638.73,171.077 1595.5,189C 1549.91,207.466 1504.57,226.466 1459.5,246C 1542.04,442.209 1624.04,638.376 1705.5,834.5C 1670.27,847.431 1634.94,860.431 1599.5,873.5C 1582.52,879.987 1565.52,886.487 1548.5,893C 1543.3,895.012 1537.96,896.512 1532.5,897.5C 1531.45,892.311 1529.45,887.644 1526.5,883.5C 1524.6,876.776 1521.93,870.443 1518.5,864.5C 1517.31,859.767 1515.81,855.101 1514,850.5C 1512.81,848.767 1511.64,847.1 1510.5,845.5C 1510.25,841.673 1508.92,838.34 1506.5,835.5C 1504.65,828.81 1501.99,822.476 1498.5,816.5C 1498.25,812.673 1496.92,809.34 1494.5,806.5C 1492.65,799.81 1489.99,793.476 1486.5,787.5C 1483.86,777.23 1479.86,767.563 1474.5,758.5C 1465.9,734.637 1456.23,711.304 1445.5,688.5C 1441.38,677.567 1437.21,666.567 1433,655.5C 1426.72,640.626 1420.22,625.959 1413.5,611.5C 1406.68,593.851 1399.84,576.184 1393,558.5C 1344.04,441.237 1295.04,323.904 1246,206.5C 1243.08,174.655 1253.58,148.155 1277.5,127C 1281.83,124 1286.17,121 1290.5,118C 1363.69,87.2126 1437.02,56.7126 1510.5,26.5 Z"/></g>
<g><path style="opacity:1" fill="#88d4f1" d="M 1642.5,146.5 C 1631.47,163.693 1616.47,176.193 1597.5,184C 1565.28,194.832 1535.61,190.165 1508.5,170C 1476.89,141.315 1467.89,106.815 1481.5,66.5C 1481.35,67.552 1481.52,68.552 1482,69.5C 1485.13,65.3672 1488.63,61.5338 1492.5,58C 1523.35,34.3797 1556.68,30.3797 1592.5,46C 1630.3,68.1053 1646.3,100.939 1640.5,144.5C 1640.75,145.713 1641.41,146.38 1642.5,146.5 Z"/></g>
<g><path style="opacity:0.997" fill="#d6576b" d="M 3543.5,990.5 C 3521.34,993.456 3499.68,998.789 3478.5,1006.5C 3443.21,864.127 3407.71,721.794 3372,579.5C 3341.09,521.937 3293.59,486.437 3229.5,473C 3200.81,468.004 3173.81,472.504 3148.5,486.5C 3155.98,406.371 3199.65,371.871 3279.5,383C 3319.33,391.49 3353.5,409.99 3382,438.5C 3388.64,446.475 3395.3,454.475 3402,462.5C 3407.89,471.208 3413.23,480.208 3418,489.5C 3459.1,656.653 3500.94,823.653 3543.5,990.5 Z"/></g>
<g><path style="opacity:0.997" fill="#fdc768" d="M 1413.5,611.5 C 1420.29,629.099 1427.12,646.766 1434,664.5C 1437.61,672.713 1441.44,680.713 1445.5,688.5C 1454.05,712.272 1463.72,735.605 1474.5,758.5C 1474.34,759.873 1474.51,761.207 1475,762.5C 1478.88,770.924 1482.72,779.257 1486.5,787.5C 1486.34,788.873 1486.51,790.207 1487,791.5C 1489.23,796.7 1491.73,801.7 1494.5,806.5C 1494.75,810.327 1496.08,813.66 1498.5,816.5C 1500.16,821.037 1501.66,825.704 1503,830.5C 1504.19,832.233 1505.36,833.9 1506.5,835.5C 1506.75,839.327 1508.08,842.66 1510.5,845.5C 1512.35,852.19 1515.01,858.524 1518.5,864.5C 1519.69,869.233 1521.19,873.899 1523,878.5C 1523.9,880.431 1525.07,882.097 1526.5,883.5C 1527.88,888.593 1529.55,893.593 1531.5,898.5C 1476.26,919.32 1420.93,940.154 1365.5,961C 1363.87,961.494 1362.2,961.66 1360.5,961.5C 1320.9,866.164 1281.23,770.998 1241.5,676C 1239.53,675.986 1237.53,676.319 1235.5,677C 1194.2,694.491 1152.87,711.658 1111.5,728.5C 1123.18,720.483 1132.85,710.483 1140.5,698.5C 1155.1,674.886 1158.6,649.553 1151,622.5C 1139.73,590.898 1117.9,570.731 1085.5,562C 1064.05,558.06 1043.39,560.394 1023.5,569C 1014.07,575.368 1005.07,582.202 996.5,589.5C 1000.61,584.889 1004.94,580.389 1009.5,576C 1014.48,573.032 1019.48,570.032 1024.5,567C 1102.04,534.83 1179.37,502.497 1256.5,470C 1290.82,456.641 1322.82,460.641 1352.5,482C 1356,485.5 1359.5,489 1363,492.5C 1377.84,526.858 1392.17,561.524 1406,596.5C 1408.23,601.735 1410.73,606.735 1413.5,611.5 Z"/></g>
<g><path style="opacity:0.998" fill="#ef525d" d="M 3478.5,1006.5 C 3463.05,1013.72 3448.05,1021.72 3433.5,1030.5C 3345.78,883.695 3257.61,737.362 3169,591.5C 3152.65,558.38 3145.82,523.38 3148.5,486.5C 3173.81,472.504 3200.81,468.004 3229.5,473C 3293.59,486.437 3341.09,521.937 3372,579.5C 3407.71,721.794 3443.21,864.127 3478.5,1006.5 Z"/></g>
<g><path style="opacity:1" fill="#5fc5e5" d="M 1140.5,698.5 C 1146.12,661.442 1134.79,630.608 1106.5,606C 1075.12,584.504 1042.12,581.837 1007.5,598C 996.857,604.076 987.691,611.91 980,621.5C 979.536,620.906 979.369,620.239 979.5,619.5C 979.523,617.073 980.023,614.74 981,612.5C 982.861,610.112 984.194,607.446 985,604.5C 987.167,602.17 988.834,599.503 990,596.5C 990.671,595.748 991.504,595.414 992.5,595.5C 994.218,593.777 995.551,591.777 996.5,589.5C 1005.07,582.202 1014.07,575.368 1023.5,569C 1043.39,560.394 1064.05,558.06 1085.5,562C 1117.9,570.731 1139.73,590.898 1151,622.5C 1158.6,649.553 1155.1,674.886 1140.5,698.5 Z"/></g>
<g><path style="opacity:0.997" fill="#88d4f1" d="M 1140.5,698.5 C 1132.85,710.483 1123.18,720.483 1111.5,728.5C 1083.64,744.055 1054.97,745.555 1025.5,733C 992.368,715.478 975.035,687.811 973.5,650C 973.733,642.436 974.566,634.936 976,627.5C 976.705,624.524 977.871,621.858 979.5,619.5C 979.369,620.239 979.536,620.906 980,621.5C 987.691,611.91 996.857,604.076 1007.5,598C 1042.12,581.837 1075.12,584.504 1106.5,606C 1134.79,630.608 1146.12,661.442 1140.5,698.5 Z"/></g>
<g><path style="opacity:0.506" fill="#d7ca88" d="M 996.5,589.5 C 995.551,591.777 994.218,593.777 992.5,595.5C 992.622,592.708 993.956,590.708 996.5,589.5 Z"/></g>
<g><path style="opacity:1" fill="#fdc864" d="M 2673.5,670.5 C 2804.58,845.593 2867.74,1043.26 2863,1263.5C 2861.3,1325.02 2853.3,1385.69 2839,1445.5C 2838.8,1447.32 2837.97,1448.65 2836.5,1449.5C 2782.25,1360.52 2702.92,1311.35 2598.5,1302C 2490.1,1298.89 2403.93,1340.72 2340,1427.5C 2324.99,1449.53 2313.15,1473.19 2304.5,1498.5C 2273.62,1593.7 2286.12,1682.7 2342,1765.5C 2398.09,1841.13 2473.26,1882.13 2567.5,1888.5C 2575.32,1889.33 2583.32,1889.83 2591.5,1890C 2505.69,1974.93 2407.02,2040.93 2295.5,2088C 1988.15,2209.5 1680.81,2331 1373.5,2452.5C 1351.99,2259.83 1297.16,2077.5 1209,1905.5C 1158.04,1808.58 1095.04,1720.24 1020,1640.5C 939.65,1556.14 846.15,1490.64 739.5,1444C 694.916,1426.36 649.249,1412.52 602.5,1402.5C 617.413,1393.68 632.747,1385.52 648.5,1378C 670.081,1368.37 691.747,1359.04 713.5,1350C 897.258,1277.54 1081.26,1205.04 1265.5,1132.5C 1280.48,1127.01 1295.48,1121.51 1310.5,1116C 1487.92,1044.86 1665.58,974.531 1843.5,905C 1846.97,903.614 1849.97,901.78 1852.5,899.5C 1999.31,842.39 2145.97,784.557 2292.5,726C 2415.47,680.645 2542.47,662.145 2673.5,670.5 Z"/></g>
<g><path style="opacity:1" fill="#f3ad70" d="M 2673.5,670.5 C 2893.76,687.038 3084.76,768.872 3246.5,916C 3298.47,964.36 3344.13,1018.19 3383.5,1077.5C 3429.73,1147.29 3466.4,1221.96 3493.5,1301.5C 3500.62,1324.71 3507.46,1348.05 3514,1371.5C 3519.64,1394.39 3524.47,1417.39 3528.5,1440.5C 3565.4,1674.49 3521.9,1891.49 3398,2091.5C 3294.73,2252.1 3155.56,2370.6 2980.5,2447C 2467.74,2649.76 1955.74,2852.42 1444.5,3055C 1406.55,3070.26 1368.21,3084.43 1329.5,3097.5C 1349.4,3017.48 1364.24,2936.48 1374,2854.5C 1377.3,2824.56 1379.8,2794.56 1381.5,2764.5C 1383.02,2753.37 1383.69,2742.04 1383.5,2730.5C 1387.25,2637.55 1383.92,2544.88 1373.5,2452.5C 1680.81,2331 1988.15,2209.5 2295.5,2088C 2407.02,2040.93 2505.69,1974.93 2591.5,1890C 2583.32,1889.83 2575.32,1889.33 2567.5,1888.5C 2660.29,1890.76 2738.13,1858.09 2801,1790.5C 2808.38,1781.29 2815.55,1771.96 2822.5,1762.5C 2851.8,1720.52 2868.8,1673.85 2873.5,1622.5C 2874.3,1621.05 2874.8,1619.38 2875,1617.5C 2875.83,1602.33 2875.66,1587.33 2874.5,1572.5C 2870.67,1528.69 2858.01,1487.69 2836.5,1449.5C 2837.97,1448.65 2838.8,1447.32 2839,1445.5C 2853.3,1385.69 2861.3,1325.02 2863,1263.5C 2867.74,1043.26 2804.58,845.593 2673.5,670.5 Z"/></g>
<g><path style="opacity:0.999" fill="#f68f2b" d="M 1852.5,899.5 C 1849.97,901.78 1846.97,903.614 1843.5,905C 1665.58,974.531 1487.92,1044.86 1310.5,1116C 1295.48,1121.51 1280.48,1127.01 1265.5,1132.5C 1256.68,1102.45 1257.85,1072.79 1269,1043.5C 1270.38,1039.8 1272.21,1036.46 1274.5,1033.5C 1374.13,1017.79 1467.8,985.291 1555.5,936C 1571.35,926.649 1585.85,915.483 1599,902.5C 1604.87,896.691 1607.2,889.691 1606,881.5C 1604.24,878.527 1601.74,876.36 1598.5,875C 1599.06,874.617 1599.39,874.117 1599.5,873.5C 1634.94,860.431 1670.27,847.431 1705.5,834.5C 1760.53,825.132 1806.03,841.465 1842,883.5C 1845.36,889.009 1848.86,894.342 1852.5,899.5 Z"/></g>
<g><path style="opacity:0.996" fill="#fa9e4b" d="M 1599.5,873.5 C 1599.39,874.117 1599.06,874.617 1598.5,875C 1601.74,876.36 1604.24,878.527 1606,881.5C 1607.2,889.691 1604.87,896.691 1599,902.5C 1585.85,915.483 1571.35,926.649 1555.5,936C 1467.8,985.291 1374.13,1017.79 1274.5,1033.5C 1288.41,1003.75 1310.41,982.254 1340.5,969C 1347.05,966.225 1353.72,963.725 1360.5,961.5C 1362.2,961.66 1363.87,961.494 1365.5,961C 1420.93,940.154 1476.26,919.32 1531.5,898.5C 1532.17,898.5 1532.5,898.167 1532.5,897.5C 1537.96,896.512 1543.3,895.012 1548.5,893C 1565.52,886.487 1582.52,879.987 1599.5,873.5 Z"/></g>
<g><path style="opacity:1" fill="#f58e2b" d="M 3596.5,992.5 C 3640.17,1048.69 3652.67,1111.35 3634,1180.5C 3618.63,1230.19 3587.8,1266.69 3541.5,1290C 3526.1,1296.35 3510.1,1300.18 3493.5,1301.5C 3466.4,1221.96 3429.73,1147.29 3383.5,1077.5C 3397.76,1059.37 3414.42,1043.7 3433.5,1030.5C 3448.05,1021.72 3463.05,1013.72 3478.5,1006.5C 3499.68,998.789 3521.34,993.456 3543.5,990.5C 3561.22,989.392 3578.89,990.059 3596.5,992.5 Z"/></g>
<g><path style="opacity:0.999" fill="#f3862b" d="M 3596.5,992.5 C 3673.98,1006.03 3730.82,1047.36 3767,1116.5C 3795.49,1179.89 3796.82,1243.89 3771,1308.5C 3765.96,1319.15 3760.46,1329.49 3754.5,1339.5C 3753.5,1339.41 3752.67,1339.75 3752,1340.5C 3738.83,1359.84 3723.33,1377.17 3705.5,1392.5C 3687.62,1405.61 3668.62,1416.95 3648.5,1426.5C 3609.87,1442.3 3569.87,1446.97 3528.5,1440.5C 3524.47,1417.39 3519.64,1394.39 3514,1371.5C 3507.46,1348.05 3500.62,1324.71 3493.5,1301.5C 3510.1,1300.18 3526.1,1296.35 3541.5,1290C 3587.8,1266.69 3618.63,1230.19 3634,1180.5C 3652.67,1111.35 3640.17,1048.69 3596.5,992.5 Z"/></g>
<g><path style="opacity:1" fill="#5dc4e6" d="M 2836.5,1449.5 C 2858.01,1487.69 2870.67,1528.69 2874.5,1572.5C 2874.71,1589.18 2874.37,1605.85 2873.5,1622.5C 2868.8,1673.85 2851.8,1720.52 2822.5,1762.5C 2821.5,1762.53 2820.84,1762.03 2820.5,1761C 2846.16,1647.44 2817.83,1550.11 2735.5,1469C 2663.49,1406.01 2579.82,1381.68 2484.5,1396C 2410.81,1410.42 2350.65,1446.92 2304,1505.5C 2303.98,1503.2 2304.15,1500.87 2304.5,1498.5C 2313.15,1473.19 2324.99,1449.53 2340,1427.5C 2403.93,1340.72 2490.1,1298.89 2598.5,1302C 2702.92,1311.35 2782.25,1360.52 2836.5,1449.5 Z"/></g>
<g><path style="opacity:0.997" fill="#d6576b" d="M 3754.5,1339.5 C 3841.84,1446.24 3928.68,1553.24 4015,1660.5C 4056.99,1700.34 4079.49,1749.51 4082.5,1808C 4078.84,1886.99 4037.5,1923.66 3958.5,1918C 3947.62,1917.29 3936.95,1915.46 3926.5,1912.5C 3958.41,1900.07 3978.57,1877.07 3987,1843.5C 3995.69,1798.69 3989.02,1756.36 3967,1716.5C 3961.92,1708 3956.58,1699.66 3951,1691.5C 3936.63,1675.46 3922.63,1659.13 3909,1642.5C 3841.68,1558.69 3773.85,1475.35 3705.5,1392.5C 3723.33,1377.17 3738.83,1359.84 3752,1340.5C 3752.67,1339.75 3753.5,1339.41 3754.5,1339.5 Z"/></g>
<g><path style="opacity:0.998" fill="#ef525d" d="M 3705.5,1392.5 C 3773.85,1475.35 3841.68,1558.69 3909,1642.5C 3922.63,1659.13 3936.63,1675.46 3951,1691.5C 3956.58,1699.66 3961.92,1708 3967,1716.5C 3989.02,1756.36 3995.69,1798.69 3987,1843.5C 3978.57,1877.07 3958.41,1900.07 3926.5,1912.5C 3880.64,1898.98 3843.48,1872.98 3815,1834.5C 3759.02,1698.75 3703.52,1562.75 3648.5,1426.5C 3668.62,1416.95 3687.62,1405.61 3705.5,1392.5 Z"/></g>
<g><path style="opacity:1" fill="#88d4f1" d="M 2822.5,1762.5 C 2815.55,1771.96 2808.38,1781.29 2801,1790.5C 2738.13,1858.09 2660.29,1890.76 2567.5,1888.5C 2473.26,1882.13 2398.09,1841.13 2342,1765.5C 2286.12,1682.7 2273.62,1593.7 2304.5,1498.5C 2304.15,1500.87 2303.98,1503.2 2304,1505.5C 2350.65,1446.92 2410.81,1410.42 2484.5,1396C 2579.82,1381.68 2663.49,1406.01 2735.5,1469C 2817.83,1550.11 2846.16,1647.44 2820.5,1761C 2820.84,1762.03 2821.5,1762.53 2822.5,1762.5 Z"/></g>
<g><path style="opacity:1" fill="#50c7ed" d="M 602.5,1402.5 C 649.249,1412.52 694.916,1426.36 739.5,1444C 846.15,1490.64 939.65,1556.14 1020,1640.5C 1095.04,1720.24 1158.04,1808.58 1209,1905.5C 1297.16,2077.5 1351.99,2259.83 1373.5,2452.5C 1383.92,2544.88 1387.25,2637.55 1383.5,2730.5C 1382.25,2741.65 1381.58,2752.98 1381.5,2764.5C 1379.8,2794.56 1377.3,2824.56 1374,2854.5C 1364.24,2936.48 1349.4,3017.48 1329.5,3097.5C 1255.8,3120.57 1180.47,3134.91 1103.5,3140.5C 1066.83,3140.5 1030.17,3140.5 993.5,3140.5C 917.987,3135.23 843.987,3121.4 771.5,3099C 750.851,3091.99 730.518,3084.49 710.5,3076.5C 782.179,2957.02 832.012,2828.68 860,2691.5C 901.555,2483.57 897.555,2276.57 848,2070.5C 813.685,1930.23 755.351,1801.23 673,1683.5C 617.448,1606.78 550.948,1541.45 473.5,1487.5C 514.022,1455.41 557.022,1427.07 602.5,1402.5 Z"/></g>
<g><path style="opacity:1" fill="#88d4f1" d="M 473.5,1487.5 C 550.948,1541.45 617.448,1606.78 673,1683.5C 755.351,1801.23 813.685,1930.23 848,2070.5C 897.555,2276.57 901.555,2483.57 860,2691.5C 832.012,2828.68 782.179,2957.02 710.5,3076.5C 534.202,3007 392.035,2894.67 284,2739.5C 138.673,2520.32 91.3395,2280.65 142,2020.5C 180.688,1845.75 261.688,1694.42 385,1566.5C 412.959,1538.02 442.459,1511.69 473.5,1487.5 Z"/></g>
<g><path style="opacity:1" fill="#c9b492" d="M 2874.5,1572.5 C 2875.66,1587.33 2875.83,1602.33 2875,1617.5C 2874.8,1619.38 2874.3,1621.05 2873.5,1622.5C 2874.37,1605.85 2874.71,1589.18 2874.5,1572.5 Z"/></g>
<g><path style="opacity:1" fill="#5dc5e6" d="M 1962.5,2126.5 C 1961.88,2126.08 1961.54,2125.42 1961.5,2124.5C 1984.4,2032.18 1968.57,1947.51 1914,1870.5C 1854.1,1794.69 1775.43,1755.36 1678,1752.5C 1582.84,1755.02 1505.67,1793.02 1446.5,1866.5C 1445.61,1865.68 1445.28,1864.68 1445.5,1863.5C 1478.98,1769.19 1543.31,1706.36 1638.5,1675C 1735.44,1649.06 1824.1,1665.72 1904.5,1725C 1985.5,1791.88 2022.67,1878.05 2016,1983.5C 2010.99,2036.14 1993.16,2083.81 1962.5,2126.5 Z"/></g>
<g><path style="opacity:1" fill="#88d4f1" d="M 1962.5,2126.5 C 1906.01,2202.92 1830.01,2244.09 1734.5,2250C 1619.82,2250.59 1531.99,2202.76 1471,2106.5C 1433.42,2040.23 1421.75,1969.57 1436,1894.5C 1438.11,1883.71 1441.28,1873.38 1445.5,1863.5C 1445.28,1864.68 1445.61,1865.68 1446.5,1866.5C 1505.67,1793.02 1582.84,1755.02 1678,1752.5C 1775.43,1755.36 1854.1,1794.69 1914,1870.5C 1968.57,1947.51 1984.4,2032.18 1961.5,2124.5C 1961.54,2125.42 1961.88,2126.08 1962.5,2126.5 Z"/></g>
<g><path style="opacity:0.929" fill="#a0bbb5" d="M 1383.5,2730.5 C 1383.69,2742.04 1383.02,2753.37 1381.5,2764.5C 1381.58,2752.98 1382.25,2741.65 1383.5,2730.5 Z"/></g>
</svg>
